<?xml version="1.0" encoding="UTF-8" standalone="no"?>
<!DOCTYPE svg PUBLIC "-//W3C//DTD SVG 1.1//EN"
 "http://www.w3.org/Graphics/SVG/1.1/DTD/svg11.dtd">
<!-- Generated by graphviz version 2.43.0 (0)
 -->
<!-- Title: boxes_and_circles Pages: 1 -->
<svg width="1607pt" height="1399pt"
 viewBox="0.00 0.00 1607.00 1398.50" xmlns="http://www.w3.org/2000/svg" xmlns:xlink="http://www.w3.org/1999/xlink">
<g id="graph0" class="graph" transform="scale(1 1) rotate(0) translate(4 1394.5)">
<title>boxes_and_circles</title>
<polygon fill="white" stroke="transparent" points="-4,4 -4,-1394.5 1603,-1394.5 1603,4 -4,4"/>
<g id="clust1" class="cluster">
<title>cluster_rna</title>
<polygon fill="seashell" stroke="black" points="8,-747.5 8,-1288.5 462,-1288.5 462,-747.5 8,-747.5"/>
<text text-anchor="start" x="155" y="-1274.3" font-family="ubuntu" font-weight="bold" font-size="14.00">Transcriptome assembly</text>
</g>
<g id="clust4" class="cluster">
<title>cluster_db</title>
</g>
<g id="clust6" class="cluster">
<title>cluster_pre</title>
</g>
<g id="clust11" class="cluster">
<title>cluster_search</title>
<polygon fill="whitesmoke" stroke="black" points="304,-443 304,-739.5 949,-739.5 949,-443 304,-443"/>
<text text-anchor="start" x="564.5" y="-725.3" font-family="ubuntu" font-weight="bold" font-size="14.00">Database searches</text>
</g>
<g id="clust15" class="cluster">
<title>cluster_bk</title>
</g>
<g id="clust19" class="cluster">
<title>cluster_quant</title>
<polygon fill="linen" stroke="black" points="901,-68 901,-311 1469,-311 1469,-68 901,-68"/>
<text text-anchor="start" x="1136" y="-296.8" font-family="ubuntu" font-weight="bold" font-size="14.00">Search metrics</text>
</g>
<g id="clust22" class="cluster">
<title>cluster_combine</title>
</g>
<!-- rawRNA1 -->
<g id="node1" class="node">
<title>rawRNA1</title>
<polygon fill="lightcyan" stroke="#7a8b8b" points="412,-1215.5 409,-1219.5 388,-1219.5 385,-1215.5 324,-1215.5 324,-1179.5 412,-1179.5 412,-1215.5"/>
<text text-anchor="start" x="337.5" y="-1201.3" font-family="ubuntu" font-style="italic" font-size="14.00">C. fleckeri</text>
<text text-anchor="start" x="332" y="-1187.3" font-family="ubuntu" font-size="14.00">short reads</text>
</g>
<!-- fp -->
<g id="node7" class="node">
<title>fp</title>
<polygon fill="#f0fff0" stroke="#838b83" points="307.5,-1143.5 224.5,-1143.5 224.5,-1139.5 220.5,-1139.5 220.5,-1135.5 224.5,-1135.5 224.5,-1115.5 220.5,-1115.5 220.5,-1111.5 224.5,-1111.5 224.5,-1107.5 307.5,-1107.5 307.5,-1143.5"/>
<polyline fill="none" stroke="#838b83" points="224.5,-1139.5 228.5,-1139.5 228.5,-1135.5 224.5,-1135.5 "/>
<polyline fill="none" stroke="#838b83" points="224.5,-1115.5 228.5,-1115.5 228.5,-1111.5 224.5,-1111.5 "/>
<text text-anchor="start" x="247.5" y="-1129.3" font-family="ubuntu" font-weight="bold" font-size="14.00">FastP</text>
<text text-anchor="start" x="232.5" y="-1115.3" font-family="ubuntu" font-size="14.00">Trim reads</text>
</g>
<!-- rawRNA1&#45;&gt;fp -->
<g id="edge2" class="edge">
<title>rawRNA1&#45;&gt;fp</title>
<path fill="none" stroke="black" d="M343.05,-1179.38C329.96,-1170.39 313.74,-1159.26 299.56,-1149.53"/>
<polygon fill="black" stroke="black" points="301.27,-1146.46 291.05,-1143.69 297.31,-1152.23 301.27,-1146.46"/>
</g>
<!-- rawRNA2 -->
<g id="node2" class="node">
<title>rawRNA2</title>
<polygon fill="lightcyan" stroke="#7a8b8b" points="305.5,-1215.5 302.5,-1219.5 281.5,-1219.5 278.5,-1215.5 204.5,-1215.5 204.5,-1179.5 305.5,-1179.5 305.5,-1215.5"/>
<text text-anchor="start" x="212.5" y="-1201.3" font-family="ubuntu" font-style="italic" font-size="14.00">C. yamaguchii</text>
<text text-anchor="start" x="219" y="-1187.3" font-family="ubuntu" font-size="14.00">short reads</text>
</g>
<!-- rawRNA2&#45;&gt;fp -->
<g id="edge3" class="edge">
<title>rawRNA2&#45;&gt;fp</title>
<path fill="none" stroke="black" d="M257.72,-1179.2C258.93,-1171.48 260.39,-1162.21 261.74,-1153.61"/>
<polygon fill="black" stroke="black" points="265.22,-1154.03 263.31,-1143.6 258.3,-1152.94 265.22,-1154.03"/>
</g>
<!-- mtdna -->
<g id="node3" class="node">
<title>mtdna</title>
<polygon fill="lightcyan" stroke="#7a8b8b" points="186,-1215.5 183,-1219.5 162,-1219.5 159,-1215.5 58,-1215.5 58,-1179.5 186,-1179.5 186,-1215.5"/>
<text text-anchor="middle" x="122" y="-1193.8" font-family="ubuntu" font-size="14.00">Cnidarian mtDNA</text>
</g>
<!-- bbduk -->
<g id="node8" class="node">
<title>bbduk</title>
<polygon fill="#f0fff0" stroke="#838b83" points="336,-1071.5 196,-1071.5 196,-1067.5 192,-1067.5 192,-1063.5 196,-1063.5 196,-1043.5 192,-1043.5 192,-1039.5 196,-1039.5 196,-1035.5 336,-1035.5 336,-1071.5"/>
<polyline fill="none" stroke="#838b83" points="196,-1067.5 200,-1067.5 200,-1063.5 196,-1063.5 "/>
<polyline fill="none" stroke="#838b83" points="196,-1043.5 200,-1043.5 200,-1039.5 196,-1039.5 "/>
<text text-anchor="start" x="243.5" y="-1057.3" font-family="ubuntu" font-weight="bold" font-size="14.00">BBduk</text>
<text text-anchor="start" x="204" y="-1043.3" font-family="ubuntu" font-size="14.00">Filter contaminants</text>
</g>
<!-- mtdna&#45;&gt;bbduk -->
<g id="edge1" class="edge">
<title>mtdna&#45;&gt;bbduk</title>
<path fill="none" stroke="black" d="M139.37,-1179.37C164.78,-1154.32 212.2,-1107.55 241.25,-1078.91"/>
<polygon fill="black" stroke="black" points="243.91,-1081.2 248.57,-1071.69 238.99,-1076.22 243.91,-1081.2"/>
</g>
<!-- raw -->
<g id="node4" class="node">
<title>raw</title>
<polygon fill="lightcyan" stroke="#7a8b8b" points="1310,-1332.5 1307,-1336.5 1286,-1336.5 1283,-1332.5 1110,-1332.5 1110,-1296.5 1310,-1296.5 1310,-1332.5"/>
<text text-anchor="start" x="1118" y="-1310.8" font-family="ubuntu" font-size="14.00">Mass spectrometer RAW files</text>
</g>
<!-- thermoparse -->
<g id="node45" class="node">
<title>thermoparse</title>
<polygon fill="transparent" stroke="transparent" points="1288.5,-1215.5 1131.5,-1215.5 1131.5,-1179.5 1288.5,-1179.5 1288.5,-1215.5"/>
<text text-anchor="start" x="1139.5" y="-1193.8" font-family="ubuntu" font-size="14.00">File format conversion</text>
</g>
<!-- raw&#45;&gt;thermoparse -->
<g id="edge11" class="edge">
<title>raw&#45;&gt;thermoparse</title>
<path fill="none" stroke="black" d="M1210,-1296.03C1210,-1277.44 1210,-1247.74 1210,-1226"/>
<polygon fill="black" stroke="black" points="1213.5,-1225.75 1210,-1215.75 1206.5,-1225.75 1213.5,-1225.75"/>
</g>
<!-- unip -->
<g id="node5" class="node">
<title>unip</title>
<polygon fill="lightcyan" stroke="#7a8b8b" points="798,-927.5 795,-931.5 774,-931.5 771,-927.5 664,-927.5 664,-891.5 798,-891.5 798,-927.5"/>
<text text-anchor="start" x="705" y="-913.3" font-family="ubuntu" font-weight="bold" font-size="14.00">UniProt</text>
<text text-anchor="start" x="672" y="-899.3" font-family="ubuntu" font-size="14.00">Cnidarian proteins</text>
</g>
<!-- decoy_db -->
<g id="node38" class="node">
<title>decoy_db</title>
<polygon fill="#cae1ff" stroke="#8470ff" points="797.5,-833.5 558.5,-833.5 558.5,-837.5 546.5,-837.5 546.5,-797.5 797.5,-797.5 797.5,-833.5"/>
<polyline fill="none" stroke="#8470ff" points="546.5,-833.5 558.5,-833.5 "/>
<text text-anchor="start" x="554.5" y="-811.8" font-family="ubuntu" font-size="14.00">Concatenated target&#45;decoy database</text>
</g>
<!-- unip&#45;&gt;decoy_db -->
<g id="edge8" class="edge">
<title>unip&#45;&gt;decoy_db</title>
<path fill="none" stroke="black" d="M719.9,-891.2C711.08,-877.45 698.61,-858 688.61,-842.4"/>
<polygon fill="black" stroke="black" points="691.39,-840.26 683.05,-833.73 685.5,-844.03 691.39,-840.26"/>
</g>
<!-- ncbi -->
<g id="node6" class="node">
<title>ncbi</title>
<polygon fill="lightcyan" stroke="#7a8b8b" points="646,-927.5 643,-931.5 622,-931.5 619,-927.5 512,-927.5 512,-891.5 646,-891.5 646,-927.5"/>
<text text-anchor="start" x="562" y="-913.3" font-family="ubuntu" font-weight="bold" font-size="14.00">NCBI</text>
<text text-anchor="start" x="520" y="-899.3" font-family="ubuntu" font-size="14.00">Cnidarian proteins</text>
</g>
<!-- ncbi&#45;&gt;decoy_db -->
<g id="edge9" class="edge">
<title>ncbi&#45;&gt;decoy_db</title>
<path fill="none" stroke="black" d="M596.49,-891.2C610.78,-877.06 631.15,-856.91 647.14,-841.09"/>
<polygon fill="black" stroke="black" points="649.94,-843.25 654.59,-833.73 645.02,-838.27 649.94,-843.25"/>
</g>
<!-- fp&#45;&gt;bbduk -->
<g id="edge5" class="edge">
<title>fp&#45;&gt;bbduk</title>
<path fill="none" stroke="black" d="M266,-1107.2C266,-1099.48 266,-1090.21 266,-1081.61"/>
<polygon fill="black" stroke="black" points="269.5,-1081.6 266,-1071.6 262.5,-1081.6 269.5,-1081.6"/>
</g>
<!-- spades -->
<g id="node9" class="node">
<title>spades</title>
<polygon fill="#f0fff0" stroke="#838b83" points="398.5,-999.5 179.5,-999.5 179.5,-995.5 175.5,-995.5 175.5,-991.5 179.5,-991.5 179.5,-971.5 175.5,-971.5 175.5,-967.5 179.5,-967.5 179.5,-963.5 398.5,-963.5 398.5,-999.5"/>
<polyline fill="none" stroke="#838b83" points="179.5,-995.5 183.5,-995.5 183.5,-991.5 179.5,-991.5 "/>
<polyline fill="none" stroke="#838b83" points="179.5,-971.5 183.5,-971.5 183.5,-967.5 179.5,-967.5 "/>
<text text-anchor="start" x="250" y="-985.3" font-family="ubuntu" font-weight="bold" font-size="14.00">RNASpades</text>
<text text-anchor="start" x="187.5" y="-971.3" font-family="ubuntu" font-size="14.00">Denovo transcriptome assembly</text>
</g>
<!-- bbduk&#45;&gt;spades -->
<g id="edge4" class="edge">
<title>bbduk&#45;&gt;spades</title>
<path fill="none" stroke="black" d="M271.69,-1035.2C274.25,-1027.4 277.33,-1018.01 280.18,-1009.33"/>
<polygon fill="black" stroke="black" points="283.58,-1010.2 283.38,-999.6 276.93,-1008.01 283.58,-1010.2"/>
</g>
<!-- tdc -->
<g id="node10" class="node">
<title>tdc</title>
<polygon fill="#f0fff0" stroke="#838b83" points="384,-927.5 236,-927.5 236,-923.5 232,-923.5 232,-919.5 236,-919.5 236,-899.5 232,-899.5 232,-895.5 236,-895.5 236,-891.5 384,-891.5 384,-927.5"/>
<polyline fill="none" stroke="#838b83" points="236,-923.5 240,-923.5 240,-919.5 236,-919.5 "/>
<polyline fill="none" stroke="#838b83" points="236,-899.5 240,-899.5 240,-895.5 236,-895.5 "/>
<text text-anchor="start" x="267.5" y="-913.3" font-family="ubuntu" font-weight="bold" font-size="14.00">Transdecode</text>
<text text-anchor="start" x="244" y="-899.3" font-family="ubuntu" font-size="14.00">Proteome prediction</text>
</g>
<!-- spades&#45;&gt;tdc -->
<g id="edge6" class="edge">
<title>spades&#45;&gt;tdc</title>
<path fill="none" stroke="black" d="M294.19,-963.2C296.53,-955.4 299.35,-946.01 301.95,-937.33"/>
<polygon fill="black" stroke="black" points="305.35,-938.19 304.87,-927.6 298.64,-936.18 305.35,-938.19"/>
</g>
<!-- busco -->
<g id="node11" class="node">
<title>busco</title>
<polygon fill="#f0fff0" stroke="#838b83" points="400.5,-833.5 219.5,-833.5 219.5,-829.5 215.5,-829.5 215.5,-825.5 219.5,-825.5 219.5,-805.5 215.5,-805.5 215.5,-801.5 219.5,-801.5 219.5,-797.5 400.5,-797.5 400.5,-833.5"/>
<polyline fill="none" stroke="#838b83" points="219.5,-829.5 223.5,-829.5 223.5,-825.5 219.5,-825.5 "/>
<polyline fill="none" stroke="#838b83" points="219.5,-805.5 223.5,-805.5 223.5,-801.5 219.5,-801.5 "/>
<text text-anchor="start" x="285.5" y="-819.3" font-family="ubuntu" font-weight="bold" font-size="14.00">BUSCO</text>
<text text-anchor="start" x="227.5" y="-805.3" font-family="ubuntu" font-size="14.00">Completeness assessment</text>
</g>
<!-- tdc&#45;&gt;busco -->
<g id="edge7" class="edge">
<title>tdc&#45;&gt;busco</title>
<path fill="none" stroke="black" d="M310,-891.2C310,-877.96 310,-859.45 310,-844.16"/>
<polygon fill="black" stroke="black" points="313.5,-843.73 310,-833.73 306.5,-843.73 313.5,-843.73"/>
</g>
<!-- tdc&#45;&gt;decoy_db -->
<g id="edge10" class="edge">
<title>tdc&#45;&gt;decoy_db</title>
<path fill="none" stroke="black" d="M351.18,-891.35C389.19,-876.16 447.53,-854.43 500,-841.5 511.67,-838.62 523.88,-836.03 536.17,-833.72"/>
<polygon fill="black" stroke="black" points="536.83,-837.15 546.04,-831.92 535.57,-830.27 536.83,-837.15"/>
</g>
<!-- sms -->
<g id="node12" class="node">
<title>sms</title>
<polygon fill="#f0fff0" stroke="#838b83" points="970.5,-999.5 899.5,-999.5 899.5,-995.5 895.5,-995.5 895.5,-991.5 899.5,-991.5 899.5,-971.5 895.5,-971.5 895.5,-967.5 899.5,-967.5 899.5,-963.5 970.5,-963.5 970.5,-999.5"/>
<polyline fill="none" stroke="#838b83" points="899.5,-995.5 903.5,-995.5 903.5,-991.5 899.5,-991.5 "/>
<polyline fill="none" stroke="#838b83" points="899.5,-971.5 903.5,-971.5 903.5,-967.5 899.5,-967.5 "/>
<text text-anchor="start" x="907.5" y="-978.8" font-family="ubuntu" font-weight="bold" font-size="14.00">SMSNet</text>
</g>
<!-- denovo -->
<g id="node33" class="node">
<title>denovo</title>
<polygon fill="#cae1ff" stroke="#8470ff" points="1022,-927.5 910,-927.5 910,-931.5 898,-931.5 898,-891.5 1022,-891.5 1022,-927.5"/>
<polyline fill="none" stroke="#8470ff" points="898,-927.5 910,-927.5 "/>
<text text-anchor="start" x="906" y="-905.8" font-family="ubuntu" font-size="14.00">Denovo peptides</text>
</g>
<!-- sms&#45;&gt;denovo -->
<g id="edge17" class="edge">
<title>sms&#45;&gt;denovo</title>
<path fill="none" stroke="black" d="M941.18,-963.2C944,-955.31 947.39,-945.8 950.52,-937.05"/>
<polygon fill="black" stroke="black" points="953.82,-938.2 953.89,-927.6 947.23,-935.84 953.82,-938.2"/>
</g>
<!-- pepnet -->
<g id="node13" class="node">
<title>pepnet</title>
<polygon fill="#f0fff0" stroke="#838b83" points="1055.5,-999.5 988.5,-999.5 988.5,-995.5 984.5,-995.5 984.5,-991.5 988.5,-991.5 988.5,-971.5 984.5,-971.5 984.5,-967.5 988.5,-967.5 988.5,-963.5 1055.5,-963.5 1055.5,-999.5"/>
<polyline fill="none" stroke="#838b83" points="988.5,-995.5 992.5,-995.5 992.5,-991.5 988.5,-991.5 "/>
<polyline fill="none" stroke="#838b83" points="988.5,-971.5 992.5,-971.5 992.5,-967.5 988.5,-967.5 "/>
<text text-anchor="start" x="996.5" y="-978.8" font-family="ubuntu" font-weight="bold" font-size="14.00">PepNet</text>
</g>
<!-- pepnet&#45;&gt;denovo -->
<g id="edge18" class="edge">
<title>pepnet&#45;&gt;denovo</title>
<path fill="none" stroke="black" d="M1006.67,-963.2C999.24,-954.8 990.18,-944.57 982.02,-935.36"/>
<polygon fill="black" stroke="black" points="984.4,-932.77 975.15,-927.6 979.16,-937.41 984.4,-932.77"/>
</g>
<!-- csnv -->
<g id="node14" class="node">
<title>csnv</title>
<polygon fill="#f0fff0" stroke="#838b83" points="1154,-999.5 1074,-999.5 1074,-995.5 1070,-995.5 1070,-991.5 1074,-991.5 1074,-971.5 1070,-971.5 1070,-967.5 1074,-967.5 1074,-963.5 1154,-963.5 1154,-999.5"/>
<polyline fill="none" stroke="#838b83" points="1074,-995.5 1078,-995.5 1078,-991.5 1074,-991.5 "/>
<polyline fill="none" stroke="#838b83" points="1074,-971.5 1078,-971.5 1078,-967.5 1074,-967.5 "/>
<text text-anchor="start" x="1082" y="-978.8" font-family="ubuntu" font-weight="bold" font-size="14.00">Casanovo</text>
</g>
<!-- csnv&#45;&gt;denovo -->
<g id="edge19" class="edge">
<title>csnv&#45;&gt;denovo</title>
<path fill="none" stroke="black" d="M1076.33,-963.38C1055.37,-953.85 1029.1,-941.91 1006.82,-931.78"/>
<polygon fill="black" stroke="black" points="1008.1,-928.52 997.55,-927.57 1005.21,-934.89 1008.1,-928.52"/>
</g>
<!-- ursgal -->
<g id="node15" class="node">
<title>ursgal</title>
<polygon fill="#f0fff0" stroke="#838b83" points="500,-427 318,-427 318,-423 314,-423 314,-419 318,-419 318,-399 314,-399 314,-395 318,-395 318,-391 500,-391 500,-427"/>
<polyline fill="none" stroke="#838b83" points="318,-423 322,-423 322,-419 318,-419 "/>
<polyline fill="none" stroke="#838b83" points="318,-399 322,-399 322,-395 318,-395 "/>
<text text-anchor="start" x="387.5" y="-412.8" font-family="ubuntu" font-weight="bold" font-size="14.00">Ursgal</text>
<text text-anchor="start" x="326" y="-398.8" font-family="ubuntu" font-size="14.00">Combined PEP calculation</text>
</g>
<!-- conf -->
<g id="node37" class="node">
<title>conf</title>
<polygon fill="#cae1ff" stroke="#8470ff" points="885,-355 649,-355 649,-359 637,-359 637,-319 885,-319 885,-355"/>
<polyline fill="none" stroke="#8470ff" points="637,-355 649,-355 "/>
<text text-anchor="start" x="645" y="-333.3" font-family="ubuntu" font-size="14.00">Confident database protein matches</text>
</g>
<!-- ursgal&#45;&gt;conf -->
<g id="edge56" class="edge">
<title>ursgal&#45;&gt;conf</title>
<path fill="none" stroke="black" d="M494.66,-390.97C546.18,-380.72 611.88,-367.66 665.13,-357.07"/>
<polygon fill="black" stroke="black" points="666.14,-360.43 675.26,-355.05 664.77,-353.57 666.14,-360.43"/>
</g>
<!-- other -->
<g id="node39" class="node">
<title>other</title>
<polygon fill="#cae1ff" stroke="#8470ff" points="618.5,-355 401.5,-355 401.5,-359 389.5,-359 389.5,-319 618.5,-319 618.5,-355"/>
<polyline fill="none" stroke="#8470ff" points="389.5,-355 401.5,-355 "/>
<text text-anchor="start" x="397.5" y="-333.3" font-family="ubuntu" font-size="14.00">Denovo &amp; transcriptome peptides</text>
</g>
<!-- ursgal&#45;&gt;other -->
<g id="edge57" class="edge">
<title>ursgal&#45;&gt;other</title>
<path fill="none" stroke="black" d="M432.48,-390.7C444.56,-381.8 459.45,-370.82 472.52,-361.2"/>
<polygon fill="black" stroke="black" points="474.81,-363.85 480.79,-355.1 470.66,-358.22 474.81,-363.85"/>
</g>
<!-- unmatched -->
<g id="node40" class="node">
<title>unmatched</title>
<polygon fill="#cae1ff" stroke="#8470ff" points="371.5,-355 234.5,-355 234.5,-359 222.5,-359 222.5,-319 371.5,-319 371.5,-355"/>
<polyline fill="none" stroke="#8470ff" points="222.5,-355 234.5,-355 "/>
<text text-anchor="start" x="230.5" y="-333.3" font-family="ubuntu" font-size="14.00">Unmatched peptides</text>
</g>
<!-- ursgal&#45;&gt;unmatched -->
<g id="edge58" class="edge">
<title>ursgal&#45;&gt;unmatched</title>
<path fill="none" stroke="black" d="M381.6,-390.88C367.09,-381.81 349.08,-370.55 333.41,-360.76"/>
<polygon fill="black" stroke="black" points="334.84,-357.52 324.5,-355.19 331.13,-363.46 334.84,-357.52"/>
</g>
<!-- intersect -->
<g id="node16" class="node">
<title>intersect</title>
<polygon fill="#f0fff0" stroke="#838b83" points="745.5,-427 518.5,-427 518.5,-423 514.5,-423 514.5,-419 518.5,-419 518.5,-399 514.5,-399 514.5,-395 518.5,-395 518.5,-391 745.5,-391 745.5,-427"/>
<polyline fill="none" stroke="#838b83" points="518.5,-423 522.5,-423 522.5,-419 518.5,-419 "/>
<polyline fill="none" stroke="#838b83" points="518.5,-399 522.5,-399 522.5,-395 518.5,-395 "/>
<text text-anchor="start" x="526.5" y="-406.3" font-family="ubuntu" font-weight="bold" font-size="14.00">Intersect protein identifications</text>
</g>
<!-- intersect&#45;&gt;conf -->
<g id="edge59" class="edge">
<title>intersect&#45;&gt;conf</title>
<path fill="none" stroke="black" d="M663.56,-390.88C680.66,-381.6 701.98,-370.03 720.32,-360.08"/>
<polygon fill="black" stroke="black" points="722.2,-363.04 729.32,-355.19 718.86,-356.88 722.2,-363.04"/>
</g>
<!-- intersect&#45;&gt;other -->
<g id="edge60" class="edge">
<title>intersect&#45;&gt;other</title>
<path fill="none" stroke="black" d="M600.69,-390.88C583.8,-381.64 562.75,-370.13 544.62,-360.21"/>
<polygon fill="black" stroke="black" points="545.89,-356.92 535.43,-355.19 542.53,-363.06 545.89,-356.92"/>
</g>
<!-- intersect&#45;&gt;unmatched -->
<g id="edge61" class="edge">
<title>intersect&#45;&gt;unmatched</title>
<path fill="none" stroke="black" d="M550.48,-390.97C499.26,-380.26 433.33,-366.49 381.54,-355.67"/>
<polygon fill="black" stroke="black" points="382.22,-352.23 371.72,-353.61 380.79,-359.08 382.22,-352.23"/>
</g>
<!-- api -->
<g id="node17" class="node">
<title>api</title>
<polygon fill="#f0fff0" stroke="#838b83" points="847.5,-124 660.5,-124 660.5,-120 656.5,-120 656.5,-116 660.5,-116 660.5,-96 656.5,-96 656.5,-92 660.5,-92 660.5,-88 847.5,-88 847.5,-124"/>
<polyline fill="none" stroke="#838b83" points="660.5,-120 664.5,-120 664.5,-116 660.5,-116 "/>
<polyline fill="none" stroke="#838b83" points="660.5,-96 664.5,-96 664.5,-92 660.5,-92 "/>
<text text-anchor="start" x="685" y="-109.8" font-family="ubuntu" font-weight="bold" font-size="14.00">UniProt Mapping API</text>
<text text-anchor="start" x="668.5" y="-95.8" font-family="ubuntu" font-size="14.00">GO, Panther classifications</text>
</g>
<!-- func -->
<g id="node43" class="node">
<title>func</title>
<polygon fill="ivory" stroke="indigo" points="775.83,-26.54 775.83,-41.46 679.86,-52 544.14,-52 448.17,-41.46 448.17,-26.54 544.14,-16 679.86,-16 775.83,-26.54"/>
<text text-anchor="start" x="503.5" y="-30.3" font-family="ubuntu" font-size="14.00">Venome functional characteristics</text>
</g>
<!-- api&#45;&gt;func -->
<g id="edge67" class="edge">
<title>api&#45;&gt;func</title>
<path fill="none" stroke="black" d="M719.26,-87.88C700.18,-78.47 676.32,-66.71 655.95,-56.67"/>
<polygon fill="black" stroke="black" points="657.39,-53.47 646.87,-52.19 654.29,-59.75 657.39,-53.47"/>
</g>
<!-- interpro -->
<g id="node18" class="node">
<title>interpro</title>
<polygon fill="#f0fff0" stroke="#838b83" points="635,-124 373,-124 373,-120 369,-120 369,-116 373,-116 373,-96 369,-96 369,-92 373,-92 373,-88 635,-88 635,-124"/>
<polyline fill="none" stroke="#838b83" points="373,-120 377,-120 377,-116 373,-116 "/>
<polyline fill="none" stroke="#838b83" points="373,-96 377,-96 377,-92 373,-92 "/>
<text text-anchor="start" x="460.5" y="-109.8" font-family="ubuntu" font-weight="bold" font-size="14.00">InterproScan</text>
<text text-anchor="start" x="381" y="-95.8" font-family="ubuntu" font-size="14.00">Homology&#45;based functional prediction</text>
</g>
<!-- interpro&#45;&gt;func -->
<g id="edge68" class="edge">
<title>interpro&#45;&gt;func</title>
<path fill="none" stroke="black" d="M530.42,-87.88C544.41,-78.81 561.78,-67.55 576.89,-57.76"/>
<polygon fill="black" stroke="black" points="578.99,-60.57 585.48,-52.19 575.18,-54.69 578.99,-60.57"/>
</g>
<!-- flcn -->
<g id="node19" class="node">
<title>flcn</title>
<polygon fill="#f0fff0" stroke="#838b83" points="1175.5,-927.5 1040.5,-927.5 1040.5,-923.5 1036.5,-923.5 1036.5,-919.5 1040.5,-919.5 1040.5,-899.5 1036.5,-899.5 1036.5,-895.5 1040.5,-895.5 1040.5,-891.5 1175.5,-891.5 1175.5,-927.5"/>
<polyline fill="none" stroke="#838b83" points="1040.5,-923.5 1044.5,-923.5 1044.5,-919.5 1040.5,-919.5 "/>
<polyline fill="none" stroke="#838b83" points="1040.5,-899.5 1044.5,-899.5 1044.5,-895.5 1040.5,-895.5 "/>
<text text-anchor="start" x="1086.5" y="-913.3" font-family="ubuntu" font-weight="bold" font-size="14.00">Falcon</text>
<text text-anchor="start" x="1048.5" y="-899.3" font-family="ubuntu" font-size="14.00">Spectral clustering</text>
</g>
<!-- flcn&#45;&gt;thermoparse -->
<g id="edge25" class="edge">
<title>flcn&#45;&gt;thermoparse</title>
<path fill="none" stroke="lightcoral" d="M1131.6,-927.67C1142.79,-937.03 1155.35,-949.55 1163,-963.5 1199.93,-1030.86 1208,-1123.46 1209.66,-1168.97"/>
<polygon fill="lightcoral" stroke="lightcoral" points="1206.17,-1169.33 1209.95,-1179.23 1213.17,-1169.13 1206.17,-1169.33"/>
</g>
<!-- wiz -->
<g id="node20" class="node">
<title>wiz</title>
<polygon fill="#f0fff0" stroke="#838b83" points="1444.5,-927.5 1193.5,-927.5 1193.5,-923.5 1189.5,-923.5 1189.5,-919.5 1193.5,-919.5 1193.5,-899.5 1189.5,-899.5 1189.5,-895.5 1193.5,-895.5 1193.5,-891.5 1444.5,-891.5 1444.5,-927.5"/>
<polyline fill="none" stroke="#838b83" points="1193.5,-923.5 1197.5,-923.5 1197.5,-919.5 1193.5,-919.5 "/>
<polyline fill="none" stroke="#838b83" points="1193.5,-899.5 1197.5,-899.5 1197.5,-895.5 1193.5,-895.5 "/>
<text text-anchor="start" x="1274" y="-913.3" font-family="ubuntu" font-weight="bold" font-size="14.00">Proteowizard</text>
<text text-anchor="start" x="1201.5" y="-899.3" font-family="ubuntu" font-size="14.00">Deisotoping, denoising, peak&#45;picking</text>
</g>
<!-- wiz&#45;&gt;thermoparse -->
<g id="edge26" class="edge">
<title>wiz&#45;&gt;thermoparse</title>
<path fill="none" stroke="lightcoral" d="M1320.68,-927.56C1323.85,-968.31 1326.84,-1073.16 1283,-1143.5 1275.47,-1155.59 1264.08,-1165.77 1252.52,-1173.88"/>
<polygon fill="lightcoral" stroke="lightcoral" points="1250.54,-1170.99 1244.12,-1179.42 1254.4,-1176.84 1250.54,-1170.99"/>
</g>
<!-- meta -->
<g id="node21" class="node">
<title>meta</title>
<polygon fill="#f0fff0" stroke="#838b83" points="634.5,-604.5 517.5,-604.5 517.5,-600.5 513.5,-600.5 513.5,-596.5 517.5,-596.5 517.5,-576.5 513.5,-576.5 513.5,-572.5 517.5,-572.5 517.5,-568.5 634.5,-568.5 634.5,-604.5"/>
<polyline fill="none" stroke="#838b83" points="517.5,-600.5 521.5,-600.5 521.5,-596.5 517.5,-596.5 "/>
<polyline fill="none" stroke="#838b83" points="517.5,-576.5 521.5,-576.5 521.5,-572.5 517.5,-572.5 "/>
<text text-anchor="start" x="525.5" y="-583.8" font-family="ubuntu" font-weight="bold" font-size="14.00">Metamorpheus</text>
</g>
<!-- perc -->
<g id="node48" class="node">
<title>perc</title>
<path fill="lightskyblue" stroke="#4a708b" d="M753.5,-527.8C753.5,-530.26 696.35,-532.25 626,-532.25 555.65,-532.25 498.5,-530.26 498.5,-527.8 498.5,-527.8 498.5,-487.7 498.5,-487.7 498.5,-485.24 555.65,-483.25 626,-483.25 696.35,-483.25 753.5,-485.24 753.5,-487.7 753.5,-487.7 753.5,-527.8 753.5,-527.8"/>
<path fill="none" stroke="#4a708b" d="M753.5,-527.8C753.5,-525.34 696.35,-523.34 626,-523.34 555.65,-523.34 498.5,-525.34 498.5,-527.8"/>
<text text-anchor="start" x="590.5" y="-511.55" font-family="ubuntu" font-weight="bold" font-size="14.00">Percolator</text>
<text text-anchor="start" x="506.5" y="-497.55" font-family="ubuntu" font-size="14.00">Posterior error probability calculation</text>
</g>
<!-- meta&#45;&gt;perc -->
<g id="edge35" class="edge">
<title>meta&#45;&gt;perc</title>
<path fill="none" stroke="black" d="M587.1,-568.47C592.38,-560.35 598.89,-550.37 605.05,-540.91"/>
<polygon fill="black" stroke="black" points="608.05,-542.72 610.57,-532.43 602.18,-538.9 608.05,-542.72"/>
</g>
<!-- tide -->
<g id="node22" class="node">
<title>tide</title>
<polygon fill="#f0fff0" stroke="#838b83" points="398,-604.5 344,-604.5 344,-600.5 340,-600.5 340,-596.5 344,-596.5 344,-576.5 340,-576.5 340,-572.5 344,-572.5 344,-568.5 398,-568.5 398,-604.5"/>
<polyline fill="none" stroke="#838b83" points="344,-600.5 348,-600.5 348,-596.5 344,-596.5 "/>
<polyline fill="none" stroke="#838b83" points="344,-576.5 348,-576.5 348,-572.5 344,-572.5 "/>
<text text-anchor="start" x="356.5" y="-583.8" font-family="ubuntu" font-weight="bold" font-size="14.00">Tide</text>
</g>
<!-- tide&#45;&gt;perc -->
<g id="edge36" class="edge">
<title>tide&#45;&gt;perc</title>
<path fill="none" stroke="black" d="M398.31,-572C401.21,-570.75 404.15,-569.55 407,-568.5 442.82,-555.27 482.9,-543.5 518.88,-533.97"/>
<polygon fill="black" stroke="black" points="520.12,-537.26 528.91,-531.35 518.35,-530.49 520.12,-537.26"/>
</g>
<!-- mq -->
<g id="node23" class="node">
<title>mq</title>
<polygon fill="#f0fff0" stroke="#838b83" points="499.5,-604.5 416.5,-604.5 416.5,-600.5 412.5,-600.5 412.5,-596.5 416.5,-596.5 416.5,-576.5 412.5,-576.5 412.5,-572.5 416.5,-572.5 416.5,-568.5 499.5,-568.5 499.5,-604.5"/>
<polyline fill="none" stroke="#838b83" points="416.5,-600.5 420.5,-600.5 420.5,-596.5 416.5,-596.5 "/>
<polyline fill="none" stroke="#838b83" points="416.5,-576.5 420.5,-576.5 420.5,-572.5 416.5,-572.5 "/>
<text text-anchor="start" x="424.5" y="-583.8" font-family="ubuntu" font-weight="bold" font-size="14.00">Maxquant</text>
</g>
<!-- mq&#45;&gt;perc -->
<g id="edge37" class="edge">
<title>mq&#45;&gt;perc</title>
<path fill="none" stroke="black" d="M495.28,-568.47C515.85,-559.07 541.9,-547.17 565.32,-536.47"/>
<polygon fill="black" stroke="black" points="566.84,-539.62 574.48,-532.28 563.93,-533.26 566.84,-539.62"/>
</g>
<!-- idpy -->
<g id="node24" class="node">
<title>idpy</title>
<polygon fill="#f0fff0" stroke="#838b83" points="908.5,-604.5 837.5,-604.5 837.5,-600.5 833.5,-600.5 833.5,-596.5 837.5,-596.5 837.5,-576.5 833.5,-576.5 833.5,-572.5 837.5,-572.5 837.5,-568.5 908.5,-568.5 908.5,-604.5"/>
<polyline fill="none" stroke="#838b83" points="837.5,-600.5 841.5,-600.5 841.5,-596.5 837.5,-596.5 "/>
<polyline fill="none" stroke="#838b83" points="837.5,-576.5 841.5,-576.5 841.5,-572.5 837.5,-572.5 "/>
<text text-anchor="start" x="845.5" y="-583.8" font-family="ubuntu" font-weight="bold" font-size="14.00">Identipy</text>
</g>
<!-- bk_decoy -->
<g id="node30" class="node">
<title>bk_decoy</title>
<polygon fill="#f0fff0" stroke="#838b83" points="1245,-525.75 989,-525.75 989,-521.75 985,-521.75 985,-517.75 989,-517.75 989,-497.75 985,-497.75 985,-493.75 989,-493.75 989,-489.75 1245,-489.75 1245,-525.75"/>
<polyline fill="none" stroke="#838b83" points="989,-521.75 993,-521.75 993,-517.75 989,-517.75 "/>
<polyline fill="none" stroke="#838b83" points="989,-497.75 993,-497.75 993,-493.75 989,-493.75 "/>
<text text-anchor="start" x="997" y="-505.05" font-family="ubuntu" font-weight="bold" font-size="14.00">Construct Bern &amp; Kil decoy database</text>
</g>
<!-- idpy&#45;&gt;bk_decoy -->
<g id="edge41" class="edge">
<title>idpy&#45;&gt;bk_decoy</title>
<path fill="none" stroke="lightcoral" d="M908.74,-574.26C946.56,-562.36 1007.01,-543.35 1053.06,-528.86"/>
<polygon fill="lightcoral" stroke="lightcoral" points="1054.17,-532.18 1062.66,-525.84 1052.07,-525.5 1054.17,-532.18"/>
</g>
<!-- idpy&#45;&gt;perc -->
<g id="edge38" class="edge">
<title>idpy&#45;&gt;perc</title>
<path fill="none" stroke="black" d="M837.22,-571.71C834.11,-570.6 831.01,-569.51 828,-568.5 792.82,-556.67 753.79,-544.83 719.49,-534.85"/>
<polygon fill="black" stroke="black" points="720.06,-531.37 709.48,-531.95 718.11,-538.09 720.06,-531.37"/>
</g>
<!-- msfrag -->
<g id="node25" class="node">
<title>msfrag</title>
<polygon fill="#f0fff0" stroke="#838b83" points="741.5,-604.5 652.5,-604.5 652.5,-600.5 648.5,-600.5 648.5,-596.5 652.5,-596.5 652.5,-576.5 648.5,-576.5 648.5,-572.5 652.5,-572.5 652.5,-568.5 741.5,-568.5 741.5,-604.5"/>
<polyline fill="none" stroke="#838b83" points="652.5,-600.5 656.5,-600.5 656.5,-596.5 652.5,-596.5 "/>
<polyline fill="none" stroke="#838b83" points="652.5,-576.5 656.5,-576.5 656.5,-572.5 652.5,-572.5 "/>
<text text-anchor="start" x="660.5" y="-583.8" font-family="ubuntu" font-weight="bold" font-size="14.00">MSFragger</text>
</g>
<!-- msfrag&#45;&gt;bk_decoy -->
<g id="edge42" class="edge">
<title>msfrag&#45;&gt;bk_decoy</title>
<path fill="none" stroke="lightcoral" d="M741.69,-570.65C744.49,-569.88 747.28,-569.15 750,-568.5 794.65,-557.77 903.01,-540.51 990.49,-527.3"/>
<polygon fill="lightcoral" stroke="lightcoral" points="991.14,-530.74 1000.51,-525.79 990.1,-523.82 991.14,-530.74"/>
</g>
<!-- msfrag&#45;&gt;perc -->
<g id="edge39" class="edge">
<title>msfrag&#45;&gt;perc</title>
<path fill="none" stroke="black" d="M681.24,-568.47C673.51,-560.1 663.94,-549.76 654.95,-540.04"/>
<polygon fill="black" stroke="black" points="657.27,-537.39 647.91,-532.43 652.13,-542.15 657.27,-537.39"/>
</g>
<!-- comet -->
<g id="node26" class="node">
<title>comet</title>
<polygon fill="#f0fff0" stroke="#838b83" points="819,-604.5 759,-604.5 759,-600.5 755,-600.5 755,-596.5 759,-596.5 759,-576.5 755,-576.5 755,-572.5 759,-572.5 759,-568.5 819,-568.5 819,-604.5"/>
<polyline fill="none" stroke="#838b83" points="759,-600.5 763,-600.5 763,-596.5 759,-596.5 "/>
<polyline fill="none" stroke="#838b83" points="759,-576.5 763,-576.5 763,-572.5 759,-572.5 "/>
<text text-anchor="start" x="767" y="-583.8" font-family="ubuntu" font-weight="bold" font-size="14.00">Comet</text>
</g>
<!-- comet&#45;&gt;bk_decoy -->
<g id="edge43" class="edge">
<title>comet&#45;&gt;bk_decoy</title>
<path fill="none" stroke="lightcoral" d="M819.43,-571.53C822.3,-570.42 825.18,-569.39 828,-568.5 882.82,-551.09 945.14,-537.46 997.83,-527.64"/>
<polygon fill="lightcoral" stroke="lightcoral" points="998.7,-531.04 1007.9,-525.79 997.43,-524.16 998.7,-531.04"/>
</g>
<!-- comet&#45;&gt;perc -->
<g id="edge40" class="edge">
<title>comet&#45;&gt;perc</title>
<path fill="none" stroke="black" d="M758.72,-571.24C738.06,-561.51 710.01,-548.31 685.02,-536.54"/>
<polygon fill="black" stroke="black" points="686.51,-533.37 675.97,-532.28 683.52,-539.7 686.51,-533.37"/>
</g>
<!-- dlfq -->
<g id="node27" class="node">
<title>dlfq</title>
<polygon fill="#f0fff0" stroke="#838b83" points="1007,-196 921,-196 921,-192 917,-192 917,-188 921,-188 921,-168 917,-168 917,-164 921,-164 921,-160 1007,-160 1007,-196"/>
<polyline fill="none" stroke="#838b83" points="921,-192 925,-192 925,-188 921,-188 "/>
<polyline fill="none" stroke="#838b83" points="921,-168 925,-168 925,-164 921,-164 "/>
<text text-anchor="start" x="929" y="-175.3" font-family="ubuntu" font-weight="bold" font-size="14.00">DirectLFQ</text>
</g>
<!-- quant -->
<g id="node42" class="node">
<title>quant</title>
<polygon fill="ivory" stroke="indigo" points="1351.42,-98.54 1351.42,-113.46 1255.69,-124 1120.31,-124 1024.58,-113.46 1024.58,-98.54 1120.31,-88 1255.69,-88 1351.42,-98.54"/>
<text text-anchor="start" x="1080" y="-102.3" font-family="ubuntu" font-size="14.00">Estimations of protein abundance</text>
</g>
<!-- dlfq&#45;&gt;quant -->
<g id="edge51" class="edge">
<title>dlfq&#45;&gt;quant</title>
<path fill="none" stroke="black" d="M1007.11,-162.84C1010.12,-161.88 1013.1,-160.92 1016,-160 1050.95,-148.9 1090,-136.84 1122.05,-127.03"/>
<polygon fill="black" stroke="black" points="1123.22,-130.34 1131.76,-124.06 1121.18,-123.64 1123.22,-130.34"/>
</g>
<!-- empai -->
<g id="node28" class="node">
<title>empai</title>
<polygon fill="#f0fff0" stroke="#838b83" points="1351,-196 1025,-196 1025,-192 1021,-192 1021,-188 1025,-188 1025,-168 1021,-168 1021,-164 1025,-164 1025,-160 1351,-160 1351,-196"/>
<polyline fill="none" stroke="#838b83" points="1025,-192 1029,-192 1029,-188 1025,-188 "/>
<polyline fill="none" stroke="#838b83" points="1025,-168 1029,-168 1029,-164 1025,-164 "/>
<text text-anchor="start" x="1166.5" y="-181.8" font-family="ubuntu" font-weight="bold" font-size="14.00">emPAI</text>
<text text-anchor="start" x="1033" y="-167.8" font-family="ubuntu" font-size="14.00">Exponentially modified protein abundance index</text>
</g>
<!-- empai&#45;&gt;quant -->
<g id="edge52" class="edge">
<title>empai&#45;&gt;quant</title>
<path fill="none" stroke="black" d="M1188,-159.7C1188,-151.98 1188,-142.71 1188,-134.11"/>
<polygon fill="black" stroke="black" points="1191.5,-134.1 1188,-124.1 1184.5,-134.1 1191.5,-134.1"/>
</g>
<!-- flfq -->
<g id="node29" class="node">
<title>flfq</title>
<polygon fill="#f0fff0" stroke="#838b83" points="1449,-196 1369,-196 1369,-192 1365,-192 1365,-188 1369,-188 1369,-168 1365,-168 1365,-164 1369,-164 1369,-160 1449,-160 1449,-196"/>
<polyline fill="none" stroke="#838b83" points="1369,-192 1373,-192 1373,-188 1369,-188 "/>
<polyline fill="none" stroke="#838b83" points="1369,-168 1373,-168 1373,-164 1369,-164 "/>
<text text-anchor="start" x="1377" y="-175.3" font-family="ubuntu" font-weight="bold" font-size="14.00">FlashLFQ</text>
</g>
<!-- flfq&#45;&gt;quant -->
<g id="edge53" class="edge">
<title>flfq&#45;&gt;quant</title>
<path fill="none" stroke="black" d="M1368.93,-162.97C1365.91,-161.95 1362.91,-160.95 1360,-160 1325.42,-148.68 1286.71,-136.69 1254.78,-126.98"/>
<polygon fill="black" stroke="black" points="1255.69,-123.6 1245.1,-124.05 1253.65,-130.3 1255.69,-123.6"/>
</g>
<!-- two -->
<g id="node49" class="node">
<title>two</title>
<polygon fill="transparent" stroke="transparent" points="1157.5,-604.5 1018.5,-604.5 1018.5,-568.5 1157.5,-568.5 1157.5,-604.5"/>
<text text-anchor="start" x="1026.5" y="-582.8" font-family="ubuntu" font-size="14.00">Second&#45;pass search</text>
</g>
<!-- bk_decoy&#45;&gt;two -->
<g id="edge44" class="edge">
<title>bk_decoy&#45;&gt;two</title>
<path fill="none" stroke="lightcoral" d="M1110.48,-526C1106.81,-535.71 1102.15,-548.04 1098.03,-558.96"/>
<polygon fill="lightcoral" stroke="lightcoral" points="1094.7,-557.88 1094.44,-568.47 1101.24,-560.35 1094.7,-557.88"/>
</g>
<!-- cov -->
<g id="node31" class="node">
<title>cov</title>
<polygon fill="#f0fff0" stroke="#838b83" points="1377,-268 1115,-268 1115,-264 1111,-264 1111,-260 1115,-260 1115,-240 1111,-240 1111,-236 1115,-236 1115,-232 1377,-232 1377,-268"/>
<polyline fill="none" stroke="#838b83" points="1115,-264 1119,-264 1119,-260 1115,-260 "/>
<polyline fill="none" stroke="#838b83" points="1115,-240 1119,-240 1119,-236 1115,-236 "/>
<text text-anchor="start" x="1171.5" y="-253.8" font-family="ubuntu" font-weight="bold" font-size="14.00">Global&#45;local alignment</text>
<text text-anchor="start" x="1123" y="-239.8" font-family="ubuntu" font-size="14.00">Calculate protein coverage by peptides</text>
</g>
<!-- blast -->
<g id="node32" class="node">
<title>blast</title>
<polygon fill="#f0fff0" stroke="#838b83" points="630.5,-268 377.5,-268 377.5,-264 373.5,-264 373.5,-260 377.5,-260 377.5,-240 373.5,-240 373.5,-236 377.5,-236 377.5,-232 630.5,-232 630.5,-268"/>
<polyline fill="none" stroke="#838b83" points="377.5,-264 381.5,-264 381.5,-260 377.5,-260 "/>
<polyline fill="none" stroke="#838b83" points="377.5,-240 381.5,-240 381.5,-236 377.5,-236 "/>
<text text-anchor="start" x="481.5" y="-253.8" font-family="ubuntu" font-weight="bold" font-size="14.00">BLAST</text>
<text text-anchor="start" x="385.5" y="-239.8" font-family="ubuntu" font-size="14.00">BLAST against downloaded database</text>
</g>
<!-- u_other -->
<g id="node41" class="node">
<title>u_other</title>
<polygon fill="#cae1ff" stroke="#8470ff" points="656,-196 364,-196 364,-200 352,-200 352,-160 656,-160 656,-196"/>
<polyline fill="none" stroke="#8470ff" points="352,-196 364,-196 "/>
<text text-anchor="start" x="360" y="-174.3" font-family="ubuntu" font-size="14.00">Unmatched denovo &amp; transcriptome peptides</text>
</g>
<!-- blast&#45;&gt;u_other -->
<g id="edge65" class="edge">
<title>blast&#45;&gt;u_other</title>
<path fill="none" stroke="black" d="M504,-231.7C504,-223.98 504,-214.71 504,-206.11"/>
<polygon fill="black" stroke="black" points="507.5,-206.1 504,-196.1 500.5,-206.1 507.5,-206.1"/>
</g>
<!-- denovo&#45;&gt;decoy_db -->
<g id="edge20" class="edge">
<title>denovo&#45;&gt;decoy_db</title>
<path fill="none" stroke="black" d="M927.81,-891.39C898.02,-876.22 852.1,-854.51 810,-841.5 803.59,-839.52 796.96,-837.68 790.24,-835.96"/>
<polygon fill="black" stroke="black" points="790.88,-832.52 780.33,-833.55 789.22,-839.32 790.88,-832.52"/>
</g>
<!-- mgf -->
<g id="node34" class="node">
<title>mgf</title>
<polygon fill="#cae1ff" stroke="#8470ff" points="1111,-1143.5 1069,-1143.5 1069,-1147.5 1057,-1147.5 1057,-1107.5 1111,-1107.5 1111,-1143.5"/>
<polyline fill="none" stroke="#8470ff" points="1057,-1143.5 1069,-1143.5 "/>
<text text-anchor="middle" x="1084" y="-1121.8" font-family="ubuntu" font-size="14.00">mgf</text>
</g>
<!-- d -->
<g id="node46" class="node">
<title>d</title>
<polygon fill="transparent" stroke="transparent" points="1138,-1071.5 944,-1071.5 944,-1035.5 1138,-1035.5 1138,-1071.5"/>
<text text-anchor="start" x="952" y="-1049.8" font-family="ubuntu" font-size="14.00">Denovo peptide sequencing</text>
</g>
<!-- mgf&#45;&gt;d -->
<g id="edge13" class="edge">
<title>mgf&#45;&gt;d</title>
<path fill="none" stroke="black" d="M1073.37,-1107.2C1068.37,-1099.06 1062.31,-1089.19 1056.79,-1080.2"/>
<polygon fill="black" stroke="black" points="1059.72,-1078.29 1051.51,-1071.6 1053.76,-1081.96 1059.72,-1078.29"/>
</g>
<!-- mzML -->
<g id="node35" class="node">
<title>mzML</title>
<polygon fill="#cae1ff" stroke="#8470ff" points="1273.5,-1143.5 1230.5,-1143.5 1230.5,-1147.5 1218.5,-1147.5 1218.5,-1107.5 1273.5,-1107.5 1273.5,-1143.5"/>
<polyline fill="none" stroke="#8470ff" points="1218.5,-1143.5 1230.5,-1143.5 "/>
<text text-anchor="middle" x="1246" y="-1121.8" font-family="ubuntu" font-size="14.00">mzML</text>
</g>
<!-- pre -->
<g id="node44" class="node">
<title>pre</title>
<polygon fill="transparent" stroke="transparent" points="1299,-999.5 1193,-999.5 1193,-963.5 1299,-963.5 1299,-999.5"/>
<text text-anchor="start" x="1201" y="-977.8" font-family="ubuntu" font-size="14.00">Preprocessing</text>
</g>
<!-- mzML&#45;&gt;pre -->
<g id="edge22" class="edge">
<title>mzML&#45;&gt;pre</title>
<path fill="none" stroke="lightcoral" d="M1246,-1107.37C1246,-1083.17 1246,-1038.71 1246,-1009.89"/>
<polygon fill="lightcoral" stroke="lightcoral" points="1249.5,-1009.69 1246,-999.69 1242.5,-1009.69 1249.5,-1009.69"/>
</g>
<!-- search -->
<g id="node47" class="node">
<title>search</title>
<polygon fill="transparent" stroke="transparent" points="774.5,-676.5 619.5,-676.5 619.5,-640.5 774.5,-640.5 774.5,-676.5"/>
<text text-anchor="middle" x="697" y="-654.8" font-family="ubuntu" font-size="14.00">Search with 6 engines</text>
</g>
<!-- mzML&#45;&gt;search -->
<g id="edge27" class="edge">
<title>mzML&#45;&gt;search</title>
<path fill="none" stroke="black" d="M1273.83,-1120.43C1334.45,-1109.84 1473,-1075.47 1473,-982.5 1473,-982.5 1473,-982.5 1473,-908.5 1473,-877.55 1476.32,-862.94 1454,-841.5 1358.13,-749.42 962.74,-691.4 784.65,-669.46"/>
<polygon fill="black" stroke="black" points="784.88,-665.96 774.53,-668.22 784.03,-672.91 784.88,-665.96"/>
</g>
<!-- rand -->
<g id="node36" class="node">
<title>rand</title>
<polygon fill="#cae1ff" stroke="#8470ff" points="1599,-1332.5 1557,-1332.5 1557,-1336.5 1545,-1336.5 1545,-1296.5 1599,-1296.5 1599,-1332.5"/>
<polyline fill="none" stroke="#8470ff" points="1545,-1332.5 1557,-1332.5 "/>
<text text-anchor="middle" x="1572" y="-1310.8" font-family="ubuntu" font-size="14.00">rand</text>
</g>
<!-- conf&#45;&gt;api -->
<g id="edge62" class="edge">
<title>conf&#45;&gt;api</title>
<path fill="none" stroke="black" d="M760.47,-318.79C759.27,-279.32 756.29,-182.03 754.83,-134.3"/>
<polygon fill="black" stroke="black" points="758.33,-133.99 754.52,-124.1 751.33,-134.2 758.33,-133.99"/>
</g>
<!-- conf&#45;&gt;cov -->
<g id="edge46" class="edge">
<title>conf&#45;&gt;cov</title>
<path fill="none" stroke="black" d="M885.03,-331.33C966.51,-327.43 1065.3,-320.9 1106,-311 1140.82,-302.53 1178.01,-286.21 1205.3,-272.73"/>
<polygon fill="black" stroke="black" points="1207.16,-275.72 1214.52,-268.1 1204.01,-269.46 1207.16,-275.72"/>
</g>
<!-- lfq -->
<g id="node50" class="node">
<title>lfq</title>
<polygon fill="transparent" stroke="transparent" points="1097,-268 921,-268 921,-232 1097,-232 1097,-268"/>
<text text-anchor="start" x="929" y="-246.3" font-family="ubuntu" font-size="14.00">Label&#45;free quantification</text>
</g>
<!-- conf&#45;&gt;lfq -->
<g id="edge47" class="edge">
<title>conf&#45;&gt;lfq</title>
<path fill="none" stroke="black" d="M870.53,-318.95C879.58,-316.61 888.5,-313.98 897,-311 923.96,-301.56 952.31,-286.32 973.73,-273.56"/>
<polygon fill="black" stroke="black" points="975.73,-276.44 982.47,-268.27 972.1,-270.45 975.73,-276.44"/>
</g>
<!-- decoy_db&#45;&gt;search -->
<g id="edge28" class="edge">
<title>decoy_db&#45;&gt;search</title>
<path fill="none" stroke="black" d="M674.77,-797.32C679.09,-770.55 687.46,-718.66 692.61,-686.75"/>
<polygon fill="black" stroke="black" points="696.08,-687.19 694.22,-676.76 689.17,-686.07 696.08,-687.19"/>
</g>
<!-- other&#45;&gt;blast -->
<g id="edge64" class="edge">
<title>other&#45;&gt;blast</title>
<path fill="none" stroke="black" d="M504,-318.8C504,-307.16 504,-291.55 504,-278.24"/>
<polygon fill="black" stroke="black" points="507.5,-278.18 504,-268.18 500.5,-278.18 507.5,-278.18"/>
</g>
<!-- unmatched&#45;&gt;interpro -->
<g id="edge63" class="edge">
<title>unmatched&#45;&gt;interpro</title>
<path fill="none" stroke="black" d="M296.41,-318.96C296.17,-284.32 300.62,-205.11 343,-160 356.3,-145.85 373.44,-135.47 391.56,-127.86"/>
<polygon fill="black" stroke="black" points="393.07,-131.03 401.11,-124.13 390.52,-124.51 393.07,-131.03"/>
</g>
<!-- u_other&#45;&gt;interpro -->
<g id="edge66" class="edge">
<title>u_other&#45;&gt;interpro</title>
<path fill="none" stroke="black" d="M504,-159.7C504,-151.98 504,-142.71 504,-134.11"/>
<polygon fill="black" stroke="black" points="507.5,-134.1 504,-124.1 500.5,-134.1 507.5,-134.1"/>
</g>
<!-- pre&#45;&gt;flcn -->
<g id="edge23" class="edge">
<title>pre&#45;&gt;flcn</title>
<path fill="none" stroke="lightcoral" d="M1212.24,-963.38C1193.78,-954.01 1170.72,-942.31 1150.98,-932.3"/>
<polygon fill="lightcoral" stroke="lightcoral" points="1152.39,-929.09 1141.89,-927.69 1149.22,-935.33 1152.39,-929.09"/>
</g>
<!-- pre&#45;&gt;wiz -->
<g id="edge24" class="edge">
<title>pre&#45;&gt;wiz</title>
<path fill="none" stroke="lightcoral" d="M1264.04,-963.2C1273.06,-954.55 1284.12,-943.95 1293.94,-934.53"/>
<polygon fill="lightcoral" stroke="lightcoral" points="1296.37,-937.05 1301.16,-927.6 1291.52,-932 1296.37,-937.05"/>
</g>
<!-- thermoparse&#45;&gt;mgf -->
<g id="edge12" class="edge">
<title>thermoparse&#45;&gt;mgf</title>
<path fill="none" stroke="black" d="M1179.18,-1179.38C1161.27,-1169.43 1138.62,-1156.85 1119.91,-1146.45"/>
<polygon fill="black" stroke="black" points="1121.52,-1143.34 1111.08,-1141.55 1118.12,-1149.46 1121.52,-1143.34"/>
</g>
<!-- thermoparse&#45;&gt;mzML -->
<g id="edge21" class="edge">
<title>thermoparse&#45;&gt;mzML</title>
<path fill="none" stroke="black" d="M1218.9,-1179.2C1223,-1171.23 1227.95,-1161.6 1232.49,-1152.76"/>
<polygon fill="black" stroke="black" points="1235.74,-1154.1 1237.2,-1143.6 1229.52,-1150.9 1235.74,-1154.1"/>
</g>
<!-- d&#45;&gt;sms -->
<g id="edge14" class="edge">
<title>d&#45;&gt;sms</title>
<path fill="none" stroke="black" d="M1015.07,-1035.38C1001.34,-1026.31 984.29,-1015.05 969.46,-1005.26"/>
<polygon fill="black" stroke="black" points="971.3,-1002.28 961.03,-999.69 967.45,-1008.12 971.3,-1002.28"/>
</g>
<!-- d&#45;&gt;pepnet -->
<g id="edge15" class="edge">
<title>d&#45;&gt;pepnet</title>
<path fill="none" stroke="black" d="M1036.3,-1035.2C1034.19,-1027.4 1031.64,-1018.01 1029.28,-1009.33"/>
<polygon fill="black" stroke="black" points="1032.64,-1008.34 1026.64,-999.6 1025.88,-1010.17 1032.64,-1008.34"/>
</g>
<!-- d&#45;&gt;csnv -->
<g id="edge16" class="edge">
<title>d&#45;&gt;csnv</title>
<path fill="none" stroke="black" d="M1059.04,-1035.2C1068.06,-1026.55 1079.12,-1015.95 1088.94,-1006.53"/>
<polygon fill="black" stroke="black" points="1091.37,-1009.05 1096.16,-999.6 1086.52,-1004 1091.37,-1009.05"/>
</g>
<!-- search&#45;&gt;meta -->
<g id="edge29" class="edge">
<title>search&#45;&gt;meta</title>
<path fill="none" stroke="black" d="M667.4,-640.38C651.43,-631.14 631.54,-619.63 614.39,-609.71"/>
<polygon fill="black" stroke="black" points="616.12,-606.67 605.71,-604.69 612.62,-612.73 616.12,-606.67"/>
</g>
<!-- search&#45;&gt;tide -->
<g id="edge30" class="edge">
<title>search&#45;&gt;tide</title>
<path fill="none" stroke="black" d="M619.4,-654.93C559.52,-650.73 475.59,-639.93 407,-612.5 404.93,-611.67 402.87,-610.71 400.83,-609.65"/>
<polygon fill="black" stroke="black" points="402.56,-606.61 392.18,-604.53 399,-612.63 402.56,-606.61"/>
</g>
<!-- search&#45;&gt;mq -->
<g id="edge31" class="edge">
<title>search&#45;&gt;mq</title>
<path fill="none" stroke="black" d="M619.5,-643.25C584.84,-635.82 543.82,-625.52 508,-612.5 504.94,-611.39 501.83,-610.14 498.73,-608.81"/>
<polygon fill="black" stroke="black" points="500.08,-605.58 489.53,-604.63 497.18,-611.95 500.08,-605.58"/>
</g>
<!-- search&#45;&gt;idpy -->
<g id="edge32" class="edge">
<title>search&#45;&gt;idpy</title>
<path fill="none" stroke="black" d="M753.61,-640.47C777,-632.82 804.17,-623.12 828,-612.5 830.29,-611.48 832.61,-610.39 834.94,-609.25"/>
<polygon fill="black" stroke="black" points="836.55,-612.35 843.85,-604.67 833.35,-606.12 836.55,-612.35"/>
</g>
<!-- search&#45;&gt;msfrag -->
<g id="edge33" class="edge">
<title>search&#45;&gt;msfrag</title>
<path fill="none" stroke="black" d="M697,-640.2C697,-632.48 697,-623.21 697,-614.61"/>
<polygon fill="black" stroke="black" points="700.5,-614.6 697,-604.6 693.5,-614.6 700.5,-614.6"/>
</g>
<!-- search&#45;&gt;comet -->
<g id="edge34" class="edge">
<title>search&#45;&gt;comet</title>
<path fill="none" stroke="black" d="M719.74,-640.2C731.44,-631.3 745.86,-620.32 758.51,-610.7"/>
<polygon fill="black" stroke="black" points="760.68,-613.44 766.52,-604.6 756.44,-607.87 760.68,-613.44"/>
</g>
<!-- perc&#45;&gt;ursgal -->
<g id="edge54" class="edge">
<title>perc&#45;&gt;ursgal</title>
<path fill="none" stroke="black" d="M573.19,-483.21C537.64,-467.36 491.15,-446.63 456.72,-431.28"/>
<polygon fill="black" stroke="black" points="457.9,-427.97 447.35,-427.1 455.05,-434.37 457.9,-427.97"/>
</g>
<!-- perc&#45;&gt;intersect -->
<g id="edge55" class="edge">
<title>perc&#45;&gt;intersect</title>
<path fill="none" stroke="black" d="M627.48,-482.83C628.33,-469.1 629.41,-451.8 630.29,-437.5"/>
<polygon fill="black" stroke="black" points="633.8,-437.46 630.93,-427.27 626.82,-437.03 633.8,-437.46"/>
</g>
<!-- two&#45;&gt;search -->
<g id="edge45" class="edge">
<title>two&#45;&gt;search</title>
<path fill="none" stroke="lightcoral" d="M1018.3,-600.53C997.32,-604.42 974.23,-608.67 953,-612.5 897.02,-622.6 834.09,-633.67 784.64,-642.3"/>
<polygon fill="lightcoral" stroke="lightcoral" points="783.86,-638.88 774.61,-644.05 785.07,-645.78 783.86,-638.88"/>
</g>
<!-- lfq&#45;&gt;dlfq -->
<g id="edge48" class="edge">
<title>lfq&#45;&gt;dlfq</title>
<path fill="none" stroke="black" d="M997.88,-231.7C992.64,-223.56 986.3,-213.69 980.52,-204.7"/>
<polygon fill="black" stroke="black" points="983.35,-202.62 975,-196.1 977.46,-206.41 983.35,-202.62"/>
</g>
<!-- lfq&#45;&gt;empai -->
<g id="edge49" class="edge">
<title>lfq&#45;&gt;empai</title>
<path fill="none" stroke="black" d="M1052.79,-231.88C1077.58,-222.18 1108.78,-209.98 1134.96,-199.74"/>
<polygon fill="black" stroke="black" points="1136.32,-202.97 1144.35,-196.07 1133.77,-196.45 1136.32,-202.97"/>
</g>
<!-- lfq&#45;&gt;flfq -->
<g id="edge50" class="edge">
<title>lfq&#45;&gt;flfq</title>
<path fill="none" stroke="black" d="M1097.01,-233.45C1100.04,-232.95 1103.04,-232.47 1106,-232 1215.42,-214.66 1247.38,-222.34 1358.85,-196.02"/>
<polygon fill="black" stroke="black" points="1359.9,-199.37 1368.81,-193.63 1358.27,-192.57 1359.9,-199.37"/>
</g>
</g>
</svg>
