<?xml version="1.0" encoding="UTF-8" standalone="no"?>
<!DOCTYPE svg PUBLIC "-//W3C//DTD SVG 1.1//EN"
 "http://www.w3.org/Graphics/SVG/1.1/DTD/svg11.dtd">
<!-- Generated by graphviz version 2.43.0 (0)
 -->
<!-- Title: boxes_and_circles Pages: 1 -->
<svg width="1511pt" height="1339pt"
 viewBox="0.00 0.00 1511.00 1338.50" xmlns="http://www.w3.org/2000/svg" xmlns:xlink="http://www.w3.org/1999/xlink">
<g id="graph0" class="graph" transform="scale(1 1) rotate(0) translate(4 1334.5)">
<title>boxes_and_circles</title>
<polygon fill="white" stroke="transparent" points="-4,4 -4,-1334.5 1507,-1334.5 1507,4 -4,4"/>
<g id="clust1" class="cluster">
<title>cluster_rna</title>
<polygon fill="seashell" stroke="black" points="8,-687.5 8,-1228.5 462,-1228.5 462,-687.5 8,-687.5"/>
<text text-anchor="start" x="155" y="-1214.3" font-family="ubuntu" font-weight="bold" font-size="14.00">Transcriptome assembly</text>
</g>
<g id="clust4" class="cluster">
<title>cluster_db</title>
</g>
<g id="clust6" class="cluster">
<title>cluster_pre</title>
</g>
<g id="clust11" class="cluster">
<title>cluster_search</title>
<polygon fill="whitesmoke" stroke="black" points="308,-383 308,-679.5 953,-679.5 953,-383 308,-383"/>
<text text-anchor="start" x="568.5" y="-665.3" font-family="ubuntu" font-weight="bold" font-size="14.00">Database searches</text>
</g>
<g id="clust15" class="cluster">
<title>cluster_bk</title>
</g>
<g id="clust19" class="cluster">
<title>cluster_quant</title>
<polygon fill="linen" stroke="black" points="897,-8 897,-251 1465,-251 1465,-8 897,-8"/>
<text text-anchor="start" x="1132" y="-236.8" font-family="ubuntu" font-weight="bold" font-size="14.00">Search metrics</text>
</g>
<g id="clust22" class="cluster">
<title>cluster_combine</title>
</g>
<!-- rawRNA1 -->
<g id="node1" class="node">
<title>rawRNA1</title>
<polygon fill="lightcyan" stroke="#7a8b8b" points="412,-1155.5 409,-1159.5 388,-1159.5 385,-1155.5 324,-1155.5 324,-1119.5 412,-1119.5 412,-1155.5"/>
<text text-anchor="start" x="337.5" y="-1141.3" font-family="ubuntu" font-style="italic" font-size="14.00">C. fleckeri</text>
<text text-anchor="start" x="332" y="-1127.3" font-family="ubuntu" font-size="14.00">short reads</text>
</g>
<!-- fp -->
<g id="node7" class="node">
<title>fp</title>
<polygon fill="#f0fff0" stroke="#838b83" points="307.5,-1083.5 224.5,-1083.5 224.5,-1079.5 220.5,-1079.5 220.5,-1075.5 224.5,-1075.5 224.5,-1055.5 220.5,-1055.5 220.5,-1051.5 224.5,-1051.5 224.5,-1047.5 307.5,-1047.5 307.5,-1083.5"/>
<polyline fill="none" stroke="#838b83" points="224.5,-1079.5 228.5,-1079.5 228.5,-1075.5 224.5,-1075.5 "/>
<polyline fill="none" stroke="#838b83" points="224.5,-1055.5 228.5,-1055.5 228.5,-1051.5 224.5,-1051.5 "/>
<text text-anchor="start" x="247.5" y="-1069.3" font-family="ubuntu" font-weight="bold" font-size="14.00">FastP</text>
<text text-anchor="start" x="232.5" y="-1055.3" font-family="ubuntu" font-size="14.00">Trim reads</text>
</g>
<!-- rawRNA1&#45;&gt;fp -->
<g id="edge2" class="edge">
<title>rawRNA1&#45;&gt;fp</title>
<path fill="none" stroke="black" d="M343.05,-1119.38C329.96,-1110.39 313.74,-1099.26 299.56,-1089.53"/>
<polygon fill="black" stroke="black" points="301.27,-1086.46 291.05,-1083.69 297.31,-1092.23 301.27,-1086.46"/>
</g>
<!-- rawRNA2 -->
<g id="node2" class="node">
<title>rawRNA2</title>
<polygon fill="lightcyan" stroke="#7a8b8b" points="305.5,-1155.5 302.5,-1159.5 281.5,-1159.5 278.5,-1155.5 204.5,-1155.5 204.5,-1119.5 305.5,-1119.5 305.5,-1155.5"/>
<text text-anchor="start" x="212.5" y="-1141.3" font-family="ubuntu" font-style="italic" font-size="14.00">C. yamaguchii</text>
<text text-anchor="start" x="219" y="-1127.3" font-family="ubuntu" font-size="14.00">short reads</text>
</g>
<!-- rawRNA2&#45;&gt;fp -->
<g id="edge3" class="edge">
<title>rawRNA2&#45;&gt;fp</title>
<path fill="none" stroke="black" d="M257.72,-1119.2C258.93,-1111.48 260.39,-1102.21 261.74,-1093.61"/>
<polygon fill="black" stroke="black" points="265.22,-1094.03 263.31,-1083.6 258.3,-1092.94 265.22,-1094.03"/>
</g>
<!-- mtdna -->
<g id="node3" class="node">
<title>mtdna</title>
<polygon fill="lightcyan" stroke="#7a8b8b" points="186,-1155.5 183,-1159.5 162,-1159.5 159,-1155.5 58,-1155.5 58,-1119.5 186,-1119.5 186,-1155.5"/>
<text text-anchor="middle" x="122" y="-1133.8" font-family="ubuntu" font-size="14.00">Cnidarian mtDNA</text>
</g>
<!-- bbduk -->
<g id="node8" class="node">
<title>bbduk</title>
<polygon fill="#f0fff0" stroke="#838b83" points="336,-1011.5 196,-1011.5 196,-1007.5 192,-1007.5 192,-1003.5 196,-1003.5 196,-983.5 192,-983.5 192,-979.5 196,-979.5 196,-975.5 336,-975.5 336,-1011.5"/>
<polyline fill="none" stroke="#838b83" points="196,-1007.5 200,-1007.5 200,-1003.5 196,-1003.5 "/>
<polyline fill="none" stroke="#838b83" points="196,-983.5 200,-983.5 200,-979.5 196,-979.5 "/>
<text text-anchor="start" x="243.5" y="-997.3" font-family="ubuntu" font-weight="bold" font-size="14.00">BBduk</text>
<text text-anchor="start" x="204" y="-983.3" font-family="ubuntu" font-size="14.00">Filter contaminants</text>
</g>
<!-- mtdna&#45;&gt;bbduk -->
<g id="edge1" class="edge">
<title>mtdna&#45;&gt;bbduk</title>
<path fill="none" stroke="black" d="M139.37,-1119.37C164.78,-1094.32 212.2,-1047.55 241.25,-1018.91"/>
<polygon fill="black" stroke="black" points="243.91,-1021.2 248.57,-1011.69 238.99,-1016.22 243.91,-1021.2"/>
</g>
<!-- raw -->
<g id="node4" class="node">
<title>raw</title>
<polygon fill="lightcyan" stroke="#7a8b8b" points="1310,-1272.5 1307,-1276.5 1286,-1276.5 1283,-1272.5 1110,-1272.5 1110,-1236.5 1310,-1236.5 1310,-1272.5"/>
<text text-anchor="start" x="1118" y="-1250.8" font-family="ubuntu" font-size="14.00">Mass spectrometer RAW files</text>
</g>
<!-- thermoparse -->
<g id="node41" class="node">
<title>thermoparse</title>
<polygon fill="transparent" stroke="transparent" points="1288.5,-1155.5 1131.5,-1155.5 1131.5,-1119.5 1288.5,-1119.5 1288.5,-1155.5"/>
<text text-anchor="start" x="1139.5" y="-1133.8" font-family="ubuntu" font-size="14.00">File format conversion</text>
</g>
<!-- raw&#45;&gt;thermoparse -->
<g id="edge11" class="edge">
<title>raw&#45;&gt;thermoparse</title>
<path fill="none" stroke="black" d="M1210,-1236.03C1210,-1217.44 1210,-1187.74 1210,-1166"/>
<polygon fill="black" stroke="black" points="1213.5,-1165.75 1210,-1155.75 1206.5,-1165.75 1213.5,-1165.75"/>
</g>
<!-- unip -->
<g id="node5" class="node">
<title>unip</title>
<polygon fill="lightcyan" stroke="#7a8b8b" points="798,-867.5 795,-871.5 774,-871.5 771,-867.5 664,-867.5 664,-831.5 798,-831.5 798,-867.5"/>
<text text-anchor="start" x="705" y="-853.3" font-family="ubuntu" font-weight="bold" font-size="14.00">UniProt</text>
<text text-anchor="start" x="672" y="-839.3" font-family="ubuntu" font-size="14.00">Cnidarian proteins</text>
</g>
<!-- decoy_db -->
<g id="node37" class="node">
<title>decoy_db</title>
<polygon fill="#cae1ff" stroke="#8470ff" points="797.5,-773.5 558.5,-773.5 558.5,-777.5 546.5,-777.5 546.5,-737.5 797.5,-737.5 797.5,-773.5"/>
<polyline fill="none" stroke="#8470ff" points="546.5,-773.5 558.5,-773.5 "/>
<text text-anchor="start" x="554.5" y="-751.8" font-family="ubuntu" font-size="14.00">Concatenated target&#45;decoy database</text>
</g>
<!-- unip&#45;&gt;decoy_db -->
<g id="edge8" class="edge">
<title>unip&#45;&gt;decoy_db</title>
<path fill="none" stroke="black" d="M719.9,-831.2C711.08,-817.45 698.61,-798 688.61,-782.4"/>
<polygon fill="black" stroke="black" points="691.39,-780.26 683.05,-773.73 685.5,-784.03 691.39,-780.26"/>
</g>
<!-- ncbi -->
<g id="node6" class="node">
<title>ncbi</title>
<polygon fill="lightcyan" stroke="#7a8b8b" points="646,-867.5 643,-871.5 622,-871.5 619,-867.5 512,-867.5 512,-831.5 646,-831.5 646,-867.5"/>
<text text-anchor="start" x="562" y="-853.3" font-family="ubuntu" font-weight="bold" font-size="14.00">NCBI</text>
<text text-anchor="start" x="520" y="-839.3" font-family="ubuntu" font-size="14.00">Cnidarian proteins</text>
</g>
<!-- ncbi&#45;&gt;decoy_db -->
<g id="edge9" class="edge">
<title>ncbi&#45;&gt;decoy_db</title>
<path fill="none" stroke="black" d="M596.49,-831.2C610.78,-817.06 631.15,-796.91 647.14,-781.09"/>
<polygon fill="black" stroke="black" points="649.94,-783.25 654.59,-773.73 645.02,-778.27 649.94,-783.25"/>
</g>
<!-- fp&#45;&gt;bbduk -->
<g id="edge5" class="edge">
<title>fp&#45;&gt;bbduk</title>
<path fill="none" stroke="black" d="M266,-1047.2C266,-1039.48 266,-1030.21 266,-1021.61"/>
<polygon fill="black" stroke="black" points="269.5,-1021.6 266,-1011.6 262.5,-1021.6 269.5,-1021.6"/>
</g>
<!-- spades -->
<g id="node9" class="node">
<title>spades</title>
<polygon fill="#f0fff0" stroke="#838b83" points="398.5,-939.5 179.5,-939.5 179.5,-935.5 175.5,-935.5 175.5,-931.5 179.5,-931.5 179.5,-911.5 175.5,-911.5 175.5,-907.5 179.5,-907.5 179.5,-903.5 398.5,-903.5 398.5,-939.5"/>
<polyline fill="none" stroke="#838b83" points="179.5,-935.5 183.5,-935.5 183.5,-931.5 179.5,-931.5 "/>
<polyline fill="none" stroke="#838b83" points="179.5,-911.5 183.5,-911.5 183.5,-907.5 179.5,-907.5 "/>
<text text-anchor="start" x="250" y="-925.3" font-family="ubuntu" font-weight="bold" font-size="14.00">RNASpades</text>
<text text-anchor="start" x="187.5" y="-911.3" font-family="ubuntu" font-size="14.00">Denovo transcriptome assembly</text>
</g>
<!-- bbduk&#45;&gt;spades -->
<g id="edge4" class="edge">
<title>bbduk&#45;&gt;spades</title>
<path fill="none" stroke="black" d="M271.69,-975.2C274.25,-967.4 277.33,-958.01 280.18,-949.33"/>
<polygon fill="black" stroke="black" points="283.58,-950.2 283.38,-939.6 276.93,-948.01 283.58,-950.2"/>
</g>
<!-- tdc -->
<g id="node10" class="node">
<title>tdc</title>
<polygon fill="#f0fff0" stroke="#838b83" points="384,-867.5 236,-867.5 236,-863.5 232,-863.5 232,-859.5 236,-859.5 236,-839.5 232,-839.5 232,-835.5 236,-835.5 236,-831.5 384,-831.5 384,-867.5"/>
<polyline fill="none" stroke="#838b83" points="236,-863.5 240,-863.5 240,-859.5 236,-859.5 "/>
<polyline fill="none" stroke="#838b83" points="236,-839.5 240,-839.5 240,-835.5 236,-835.5 "/>
<text text-anchor="start" x="267.5" y="-853.3" font-family="ubuntu" font-weight="bold" font-size="14.00">Transdecode</text>
<text text-anchor="start" x="244" y="-839.3" font-family="ubuntu" font-size="14.00">Proteome prediction</text>
</g>
<!-- spades&#45;&gt;tdc -->
<g id="edge6" class="edge">
<title>spades&#45;&gt;tdc</title>
<path fill="none" stroke="black" d="M294.19,-903.2C296.53,-895.4 299.35,-886.01 301.95,-877.33"/>
<polygon fill="black" stroke="black" points="305.35,-878.19 304.87,-867.6 298.64,-876.18 305.35,-878.19"/>
</g>
<!-- busco -->
<g id="node11" class="node">
<title>busco</title>
<polygon fill="#f0fff0" stroke="#838b83" points="400.5,-773.5 219.5,-773.5 219.5,-769.5 215.5,-769.5 215.5,-765.5 219.5,-765.5 219.5,-745.5 215.5,-745.5 215.5,-741.5 219.5,-741.5 219.5,-737.5 400.5,-737.5 400.5,-773.5"/>
<polyline fill="none" stroke="#838b83" points="219.5,-769.5 223.5,-769.5 223.5,-765.5 219.5,-765.5 "/>
<polyline fill="none" stroke="#838b83" points="219.5,-745.5 223.5,-745.5 223.5,-741.5 219.5,-741.5 "/>
<text text-anchor="start" x="285.5" y="-759.3" font-family="ubuntu" font-weight="bold" font-size="14.00">BUSCO</text>
<text text-anchor="start" x="227.5" y="-745.3" font-family="ubuntu" font-size="14.00">Completeness assessment</text>
</g>
<!-- tdc&#45;&gt;busco -->
<g id="edge7" class="edge">
<title>tdc&#45;&gt;busco</title>
<path fill="none" stroke="black" d="M310,-831.2C310,-817.96 310,-799.45 310,-784.16"/>
<polygon fill="black" stroke="black" points="313.5,-783.73 310,-773.73 306.5,-783.73 313.5,-783.73"/>
</g>
<!-- tdc&#45;&gt;decoy_db -->
<g id="edge10" class="edge">
<title>tdc&#45;&gt;decoy_db</title>
<path fill="none" stroke="black" d="M351.18,-831.35C389.19,-816.16 447.53,-794.43 500,-781.5 511.67,-778.62 523.88,-776.03 536.17,-773.72"/>
<polygon fill="black" stroke="black" points="536.83,-777.15 546.04,-771.92 535.57,-770.27 536.83,-777.15"/>
</g>
<!-- sms -->
<g id="node12" class="node">
<title>sms</title>
<polygon fill="#f0fff0" stroke="#838b83" points="970.5,-939.5 899.5,-939.5 899.5,-935.5 895.5,-935.5 895.5,-931.5 899.5,-931.5 899.5,-911.5 895.5,-911.5 895.5,-907.5 899.5,-907.5 899.5,-903.5 970.5,-903.5 970.5,-939.5"/>
<polyline fill="none" stroke="#838b83" points="899.5,-935.5 903.5,-935.5 903.5,-931.5 899.5,-931.5 "/>
<polyline fill="none" stroke="#838b83" points="899.5,-911.5 903.5,-911.5 903.5,-907.5 899.5,-907.5 "/>
<text text-anchor="start" x="907.5" y="-918.8" font-family="ubuntu" font-weight="bold" font-size="14.00">SMSNet</text>
</g>
<!-- denovo -->
<g id="node32" class="node">
<title>denovo</title>
<polygon fill="#cae1ff" stroke="#8470ff" points="1022,-867.5 910,-867.5 910,-871.5 898,-871.5 898,-831.5 1022,-831.5 1022,-867.5"/>
<polyline fill="none" stroke="#8470ff" points="898,-867.5 910,-867.5 "/>
<text text-anchor="start" x="906" y="-845.8" font-family="ubuntu" font-size="14.00">Denovo peptides</text>
</g>
<!-- sms&#45;&gt;denovo -->
<g id="edge17" class="edge">
<title>sms&#45;&gt;denovo</title>
<path fill="none" stroke="black" d="M941.18,-903.2C944,-895.31 947.39,-885.8 950.52,-877.05"/>
<polygon fill="black" stroke="black" points="953.82,-878.2 953.89,-867.6 947.23,-875.84 953.82,-878.2"/>
</g>
<!-- pepnet -->
<g id="node13" class="node">
<title>pepnet</title>
<polygon fill="#f0fff0" stroke="#838b83" points="1055.5,-939.5 988.5,-939.5 988.5,-935.5 984.5,-935.5 984.5,-931.5 988.5,-931.5 988.5,-911.5 984.5,-911.5 984.5,-907.5 988.5,-907.5 988.5,-903.5 1055.5,-903.5 1055.5,-939.5"/>
<polyline fill="none" stroke="#838b83" points="988.5,-935.5 992.5,-935.5 992.5,-931.5 988.5,-931.5 "/>
<polyline fill="none" stroke="#838b83" points="988.5,-911.5 992.5,-911.5 992.5,-907.5 988.5,-907.5 "/>
<text text-anchor="start" x="996.5" y="-918.8" font-family="ubuntu" font-weight="bold" font-size="14.00">PepNet</text>
</g>
<!-- pepnet&#45;&gt;denovo -->
<g id="edge18" class="edge">
<title>pepnet&#45;&gt;denovo</title>
<path fill="none" stroke="black" d="M1006.67,-903.2C999.24,-894.8 990.18,-884.57 982.02,-875.36"/>
<polygon fill="black" stroke="black" points="984.4,-872.77 975.15,-867.6 979.16,-877.41 984.4,-872.77"/>
</g>
<!-- csnv -->
<g id="node14" class="node">
<title>csnv</title>
<polygon fill="#f0fff0" stroke="#838b83" points="1154,-939.5 1074,-939.5 1074,-935.5 1070,-935.5 1070,-931.5 1074,-931.5 1074,-911.5 1070,-911.5 1070,-907.5 1074,-907.5 1074,-903.5 1154,-903.5 1154,-939.5"/>
<polyline fill="none" stroke="#838b83" points="1074,-935.5 1078,-935.5 1078,-931.5 1074,-931.5 "/>
<polyline fill="none" stroke="#838b83" points="1074,-911.5 1078,-911.5 1078,-907.5 1074,-907.5 "/>
<text text-anchor="start" x="1082" y="-918.8" font-family="ubuntu" font-weight="bold" font-size="14.00">Casanovo</text>
</g>
<!-- csnv&#45;&gt;denovo -->
<g id="edge19" class="edge">
<title>csnv&#45;&gt;denovo</title>
<path fill="none" stroke="black" d="M1076.33,-903.38C1055.37,-893.85 1029.1,-881.91 1006.82,-871.78"/>
<polygon fill="black" stroke="black" points="1008.1,-868.52 997.55,-867.57 1005.21,-874.89 1008.1,-868.52"/>
</g>
<!-- ursgal -->
<g id="node15" class="node">
<title>ursgal</title>
<polygon fill="#f0fff0" stroke="#838b83" points="807,-367 625,-367 625,-363 621,-363 621,-359 625,-359 625,-339 621,-339 621,-335 625,-335 625,-331 807,-331 807,-367"/>
<polyline fill="none" stroke="#838b83" points="625,-363 629,-363 629,-359 625,-359 "/>
<polyline fill="none" stroke="#838b83" points="625,-339 629,-339 629,-335 625,-335 "/>
<text text-anchor="start" x="694.5" y="-352.8" font-family="ubuntu" font-weight="bold" font-size="14.00">Ursgal</text>
<text text-anchor="start" x="633" y="-338.8" font-family="ubuntu" font-size="14.00">Combined PEP calculation</text>
</g>
<!-- rand -->
<g id="node35" class="node">
<title>rand</title>
<polygon fill="#cae1ff" stroke="#8470ff" points="614.5,-295 303.5,-295 303.5,-299 291.5,-299 291.5,-259 614.5,-259 614.5,-295"/>
<polyline fill="none" stroke="#8470ff" points="291.5,-295 303.5,-295 "/>
<text text-anchor="start" x="299.5" y="-273.3" font-family="ubuntu" font-size="14.00">Unmatched, denovo and transcriptome peptides</text>
</g>
<!-- ursgal&#45;&gt;rand -->
<g id="edge56" class="edge">
<title>ursgal&#45;&gt;rand</title>
<path fill="none" stroke="black" d="M652,-330.97C614.29,-320.93 566.43,-308.19 527.09,-297.72"/>
<polygon fill="black" stroke="black" points="527.85,-294.3 517.29,-295.11 526.05,-301.07 527.85,-294.3"/>
</g>
<!-- conf -->
<g id="node36" class="node">
<title>conf</title>
<polygon fill="#cae1ff" stroke="#8470ff" points="881,-295 645,-295 645,-299 633,-299 633,-259 881,-259 881,-295"/>
<polyline fill="none" stroke="#8470ff" points="633,-295 645,-295 "/>
<text text-anchor="start" x="641" y="-273.3" font-family="ubuntu" font-size="14.00">Confident database protein matches</text>
</g>
<!-- ursgal&#45;&gt;conf -->
<g id="edge57" class="edge">
<title>ursgal&#45;&gt;conf</title>
<path fill="none" stroke="black" d="M726.13,-330.7C730.85,-322.64 736.56,-312.89 741.78,-303.98"/>
<polygon fill="black" stroke="black" points="744.95,-305.5 746.98,-295.1 738.91,-301.96 744.95,-305.5"/>
</g>
<!-- intersect -->
<g id="node16" class="node">
<title>intersect</title>
<polygon fill="#f0fff0" stroke="#838b83" points="606.5,-367 379.5,-367 379.5,-363 375.5,-363 375.5,-359 379.5,-359 379.5,-339 375.5,-339 375.5,-335 379.5,-335 379.5,-331 606.5,-331 606.5,-367"/>
<polyline fill="none" stroke="#838b83" points="379.5,-363 383.5,-363 383.5,-359 379.5,-359 "/>
<polyline fill="none" stroke="#838b83" points="379.5,-339 383.5,-339 383.5,-335 379.5,-335 "/>
<text text-anchor="start" x="387.5" y="-346.3" font-family="ubuntu" font-weight="bold" font-size="14.00">Intersect protein identifications</text>
</g>
<!-- intersect&#45;&gt;rand -->
<g id="edge58" class="edge">
<title>intersect&#45;&gt;rand</title>
<path fill="none" stroke="black" d="M483.11,-330.7C478.51,-322.64 472.94,-312.89 467.85,-303.98"/>
<polygon fill="black" stroke="black" points="470.77,-302.05 462.77,-295.1 464.7,-305.52 470.77,-302.05"/>
</g>
<!-- intersect&#45;&gt;conf -->
<g id="edge59" class="edge">
<title>intersect&#45;&gt;conf</title>
<path fill="none" stroke="black" d="M557.24,-330.97C595.09,-320.93 643.14,-308.19 682.62,-297.72"/>
<polygon fill="black" stroke="black" points="683.7,-301.06 692.47,-295.11 681.9,-294.29 683.7,-301.06"/>
</g>
<!-- api -->
<g id="node17" class="node">
<title>api</title>
<polygon fill="#f0fff0" stroke="#838b83" points="834.5,-208 647.5,-208 647.5,-204 643.5,-204 643.5,-200 647.5,-200 647.5,-180 643.5,-180 643.5,-176 647.5,-176 647.5,-172 834.5,-172 834.5,-208"/>
<polyline fill="none" stroke="#838b83" points="647.5,-204 651.5,-204 651.5,-200 647.5,-200 "/>
<polyline fill="none" stroke="#838b83" points="647.5,-180 651.5,-180 651.5,-176 647.5,-176 "/>
<text text-anchor="start" x="672" y="-193.8" font-family="ubuntu" font-weight="bold" font-size="14.00">UniProt Mapping API</text>
<text text-anchor="start" x="655.5" y="-179.8" font-family="ubuntu" font-size="14.00">GO, Panther classifications</text>
</g>
<!-- func -->
<g id="node39" class="node">
<title>func</title>
<polygon fill="ivory" stroke="indigo" points="747.83,-110.54 747.83,-125.46 651.86,-136 516.14,-136 420.17,-125.46 420.17,-110.54 516.14,-100 651.86,-100 747.83,-110.54"/>
<text text-anchor="start" x="475.5" y="-114.3" font-family="ubuntu" font-size="14.00">Venome functional characteristics</text>
</g>
<!-- api&#45;&gt;func -->
<g id="edge62" class="edge">
<title>api&#45;&gt;func</title>
<path fill="none" stroke="black" d="M702.59,-171.88C681.13,-162.31 654.2,-150.3 631.43,-140.15"/>
<polygon fill="black" stroke="black" points="632.84,-136.94 622.28,-136.07 629.99,-143.34 632.84,-136.94"/>
</g>
<!-- interpro -->
<g id="node18" class="node">
<title>interpro</title>
<polygon fill="#f0fff0" stroke="#838b83" points="599,-208 337,-208 337,-204 333,-204 333,-200 337,-200 337,-180 333,-180 333,-176 337,-176 337,-172 599,-172 599,-208"/>
<polyline fill="none" stroke="#838b83" points="337,-204 341,-204 341,-200 337,-200 "/>
<polyline fill="none" stroke="#838b83" points="337,-180 341,-180 341,-176 337,-176 "/>
<text text-anchor="start" x="424.5" y="-193.8" font-family="ubuntu" font-weight="bold" font-size="14.00">InterproScan</text>
<text text-anchor="start" x="345" y="-179.8" font-family="ubuntu" font-size="14.00">Homology&#45;based functional prediction</text>
</g>
<!-- interpro&#45;&gt;func -->
<g id="edge63" class="edge">
<title>interpro&#45;&gt;func</title>
<path fill="none" stroke="black" d="M496.38,-171.88C511.54,-162.72 530.41,-151.34 546.74,-141.48"/>
<polygon fill="black" stroke="black" points="548.76,-144.35 555.51,-136.19 545.14,-138.36 548.76,-144.35"/>
</g>
<!-- flcn -->
<g id="node19" class="node">
<title>flcn</title>
<polygon fill="#f0fff0" stroke="#838b83" points="1175.5,-867.5 1040.5,-867.5 1040.5,-863.5 1036.5,-863.5 1036.5,-859.5 1040.5,-859.5 1040.5,-839.5 1036.5,-839.5 1036.5,-835.5 1040.5,-835.5 1040.5,-831.5 1175.5,-831.5 1175.5,-867.5"/>
<polyline fill="none" stroke="#838b83" points="1040.5,-863.5 1044.5,-863.5 1044.5,-859.5 1040.5,-859.5 "/>
<polyline fill="none" stroke="#838b83" points="1040.5,-839.5 1044.5,-839.5 1044.5,-835.5 1040.5,-835.5 "/>
<text text-anchor="start" x="1086.5" y="-853.3" font-family="ubuntu" font-weight="bold" font-size="14.00">Falcon</text>
<text text-anchor="start" x="1048.5" y="-839.3" font-family="ubuntu" font-size="14.00">Spectral clustering</text>
</g>
<!-- flcn&#45;&gt;thermoparse -->
<g id="edge25" class="edge">
<title>flcn&#45;&gt;thermoparse</title>
<path fill="none" stroke="lightcoral" d="M1131.6,-867.67C1142.79,-877.03 1155.35,-889.55 1163,-903.5 1199.93,-970.86 1208,-1063.46 1209.66,-1108.97"/>
<polygon fill="lightcoral" stroke="lightcoral" points="1206.17,-1109.33 1209.95,-1119.23 1213.17,-1109.13 1206.17,-1109.33"/>
</g>
<!-- wiz -->
<g id="node20" class="node">
<title>wiz</title>
<polygon fill="#f0fff0" stroke="#838b83" points="1444.5,-867.5 1193.5,-867.5 1193.5,-863.5 1189.5,-863.5 1189.5,-859.5 1193.5,-859.5 1193.5,-839.5 1189.5,-839.5 1189.5,-835.5 1193.5,-835.5 1193.5,-831.5 1444.5,-831.5 1444.5,-867.5"/>
<polyline fill="none" stroke="#838b83" points="1193.5,-863.5 1197.5,-863.5 1197.5,-859.5 1193.5,-859.5 "/>
<polyline fill="none" stroke="#838b83" points="1193.5,-839.5 1197.5,-839.5 1197.5,-835.5 1193.5,-835.5 "/>
<text text-anchor="start" x="1274" y="-853.3" font-family="ubuntu" font-weight="bold" font-size="14.00">Proteowizard</text>
<text text-anchor="start" x="1201.5" y="-839.3" font-family="ubuntu" font-size="14.00">Deisotoping, denoising, peak&#45;picking</text>
</g>
<!-- wiz&#45;&gt;thermoparse -->
<g id="edge26" class="edge">
<title>wiz&#45;&gt;thermoparse</title>
<path fill="none" stroke="lightcoral" d="M1320.68,-867.56C1323.85,-908.31 1326.84,-1013.16 1283,-1083.5 1275.47,-1095.59 1264.08,-1105.77 1252.52,-1113.88"/>
<polygon fill="lightcoral" stroke="lightcoral" points="1250.54,-1110.99 1244.12,-1119.42 1254.4,-1116.84 1250.54,-1110.99"/>
</g>
<!-- meta -->
<g id="node21" class="node">
<title>meta</title>
<polygon fill="#f0fff0" stroke="#838b83" points="638.5,-544.5 521.5,-544.5 521.5,-540.5 517.5,-540.5 517.5,-536.5 521.5,-536.5 521.5,-516.5 517.5,-516.5 517.5,-512.5 521.5,-512.5 521.5,-508.5 638.5,-508.5 638.5,-544.5"/>
<polyline fill="none" stroke="#838b83" points="521.5,-540.5 525.5,-540.5 525.5,-536.5 521.5,-536.5 "/>
<polyline fill="none" stroke="#838b83" points="521.5,-516.5 525.5,-516.5 525.5,-512.5 521.5,-512.5 "/>
<text text-anchor="start" x="529.5" y="-523.8" font-family="ubuntu" font-weight="bold" font-size="14.00">Metamorpheus</text>
</g>
<!-- perc -->
<g id="node44" class="node">
<title>perc</title>
<path fill="lightskyblue" stroke="#4a708b" d="M766.5,-467.8C766.5,-470.26 709.35,-472.25 639,-472.25 568.65,-472.25 511.5,-470.26 511.5,-467.8 511.5,-467.8 511.5,-427.7 511.5,-427.7 511.5,-425.24 568.65,-423.25 639,-423.25 709.35,-423.25 766.5,-425.24 766.5,-427.7 766.5,-427.7 766.5,-467.8 766.5,-467.8"/>
<path fill="none" stroke="#4a708b" d="M766.5,-467.8C766.5,-465.34 709.35,-463.34 639,-463.34 568.65,-463.34 511.5,-465.34 511.5,-467.8"/>
<text text-anchor="start" x="603.5" y="-451.55" font-family="ubuntu" font-weight="bold" font-size="14.00">Percolator</text>
<text text-anchor="start" x="519.5" y="-437.55" font-family="ubuntu" font-size="14.00">Posterior error probability calculation</text>
</g>
<!-- meta&#45;&gt;perc -->
<g id="edge35" class="edge">
<title>meta&#45;&gt;perc</title>
<path fill="none" stroke="black" d="M593.09,-508.47C599.4,-500.27 607.16,-490.17 614.5,-480.62"/>
<polygon fill="black" stroke="black" points="617.48,-482.49 620.8,-472.43 611.93,-478.23 617.48,-482.49"/>
</g>
<!-- tide -->
<g id="node22" class="node">
<title>tide</title>
<polygon fill="#f0fff0" stroke="#838b83" points="402,-544.5 348,-544.5 348,-540.5 344,-540.5 344,-536.5 348,-536.5 348,-516.5 344,-516.5 344,-512.5 348,-512.5 348,-508.5 402,-508.5 402,-544.5"/>
<polyline fill="none" stroke="#838b83" points="348,-540.5 352,-540.5 352,-536.5 348,-536.5 "/>
<polyline fill="none" stroke="#838b83" points="348,-516.5 352,-516.5 352,-512.5 348,-512.5 "/>
<text text-anchor="start" x="360.5" y="-523.8" font-family="ubuntu" font-weight="bold" font-size="14.00">Tide</text>
</g>
<!-- tide&#45;&gt;perc -->
<g id="edge36" class="edge">
<title>tide&#45;&gt;perc</title>
<path fill="none" stroke="black" d="M402.29,-511.97C405.2,-510.72 408.14,-509.54 411,-508.5 448.16,-494.99 489.74,-483.17 527.12,-473.68"/>
<polygon fill="black" stroke="black" points="528.19,-477.02 537.03,-471.2 526.48,-470.23 528.19,-477.02"/>
</g>
<!-- mq -->
<g id="node23" class="node">
<title>mq</title>
<polygon fill="#f0fff0" stroke="#838b83" points="503.5,-544.5 420.5,-544.5 420.5,-540.5 416.5,-540.5 416.5,-536.5 420.5,-536.5 420.5,-516.5 416.5,-516.5 416.5,-512.5 420.5,-512.5 420.5,-508.5 503.5,-508.5 503.5,-544.5"/>
<polyline fill="none" stroke="#838b83" points="420.5,-540.5 424.5,-540.5 424.5,-536.5 420.5,-536.5 "/>
<polyline fill="none" stroke="#838b83" points="420.5,-516.5 424.5,-516.5 424.5,-512.5 420.5,-512.5 "/>
<text text-anchor="start" x="428.5" y="-523.8" font-family="ubuntu" font-weight="bold" font-size="14.00">Maxquant</text>
</g>
<!-- mq&#45;&gt;perc -->
<g id="edge37" class="edge">
<title>mq&#45;&gt;perc</title>
<path fill="none" stroke="black" d="M501.28,-508.47C523.05,-499.03 550.63,-487.07 575.39,-476.33"/>
<polygon fill="black" stroke="black" points="576.94,-479.47 584.73,-472.28 574.16,-473.05 576.94,-479.47"/>
</g>
<!-- idpy -->
<g id="node24" class="node">
<title>idpy</title>
<polygon fill="#f0fff0" stroke="#838b83" points="912.5,-544.5 841.5,-544.5 841.5,-540.5 837.5,-540.5 837.5,-536.5 841.5,-536.5 841.5,-516.5 837.5,-516.5 837.5,-512.5 841.5,-512.5 841.5,-508.5 912.5,-508.5 912.5,-544.5"/>
<polyline fill="none" stroke="#838b83" points="841.5,-540.5 845.5,-540.5 845.5,-536.5 841.5,-536.5 "/>
<polyline fill="none" stroke="#838b83" points="841.5,-516.5 845.5,-516.5 845.5,-512.5 841.5,-512.5 "/>
<text text-anchor="start" x="849.5" y="-523.8" font-family="ubuntu" font-weight="bold" font-size="14.00">Identipy</text>
</g>
<!-- bk_decoy -->
<g id="node30" class="node">
<title>bk_decoy</title>
<polygon fill="#f0fff0" stroke="#838b83" points="1249,-465.75 993,-465.75 993,-461.75 989,-461.75 989,-457.75 993,-457.75 993,-437.75 989,-437.75 989,-433.75 993,-433.75 993,-429.75 1249,-429.75 1249,-465.75"/>
<polyline fill="none" stroke="#838b83" points="993,-461.75 997,-461.75 997,-457.75 993,-457.75 "/>
<polyline fill="none" stroke="#838b83" points="993,-437.75 997,-437.75 997,-433.75 993,-433.75 "/>
<text text-anchor="start" x="1001" y="-445.05" font-family="ubuntu" font-weight="bold" font-size="14.00">Construct Bern &amp; Kil decoy database</text>
</g>
<!-- idpy&#45;&gt;bk_decoy -->
<g id="edge41" class="edge">
<title>idpy&#45;&gt;bk_decoy</title>
<path fill="none" stroke="lightcoral" d="M912.74,-514.26C950.56,-502.36 1011.01,-483.35 1057.06,-468.86"/>
<polygon fill="lightcoral" stroke="lightcoral" points="1058.17,-472.18 1066.66,-465.84 1056.07,-465.5 1058.17,-472.18"/>
</g>
<!-- idpy&#45;&gt;perc -->
<g id="edge38" class="edge">
<title>idpy&#45;&gt;perc</title>
<path fill="none" stroke="black" d="M841.21,-511.75C838.1,-510.63 835,-509.53 832,-508.5 798.18,-496.89 760.69,-485.05 727.82,-475.01"/>
<polygon fill="black" stroke="black" points="728.82,-471.65 718.23,-472.09 726.78,-478.35 728.82,-471.65"/>
</g>
<!-- msfrag -->
<g id="node25" class="node">
<title>msfrag</title>
<polygon fill="#f0fff0" stroke="#838b83" points="745.5,-544.5 656.5,-544.5 656.5,-540.5 652.5,-540.5 652.5,-536.5 656.5,-536.5 656.5,-516.5 652.5,-516.5 652.5,-512.5 656.5,-512.5 656.5,-508.5 745.5,-508.5 745.5,-544.5"/>
<polyline fill="none" stroke="#838b83" points="656.5,-540.5 660.5,-540.5 660.5,-536.5 656.5,-536.5 "/>
<polyline fill="none" stroke="#838b83" points="656.5,-516.5 660.5,-516.5 660.5,-512.5 656.5,-512.5 "/>
<text text-anchor="start" x="664.5" y="-523.8" font-family="ubuntu" font-weight="bold" font-size="14.00">MSFragger</text>
</g>
<!-- msfrag&#45;&gt;bk_decoy -->
<g id="edge42" class="edge">
<title>msfrag&#45;&gt;bk_decoy</title>
<path fill="none" stroke="lightcoral" d="M745.69,-510.65C748.49,-509.88 751.28,-509.15 754,-508.5 798.65,-497.77 907.01,-480.51 994.49,-467.3"/>
<polygon fill="lightcoral" stroke="lightcoral" points="995.14,-470.74 1004.51,-465.79 994.1,-463.82 995.14,-470.74"/>
</g>
<!-- msfrag&#45;&gt;perc -->
<g id="edge39" class="edge">
<title>msfrag&#45;&gt;perc</title>
<path fill="none" stroke="black" d="M687.24,-508.47C680.55,-500.19 672.29,-489.96 664.51,-480.33"/>
<polygon fill="black" stroke="black" points="667.14,-478.01 658.13,-472.43 661.69,-482.41 667.14,-478.01"/>
</g>
<!-- comet -->
<g id="node26" class="node">
<title>comet</title>
<polygon fill="#f0fff0" stroke="#838b83" points="823,-544.5 763,-544.5 763,-540.5 759,-540.5 759,-536.5 763,-536.5 763,-516.5 759,-516.5 759,-512.5 763,-512.5 763,-508.5 823,-508.5 823,-544.5"/>
<polyline fill="none" stroke="#838b83" points="763,-540.5 767,-540.5 767,-536.5 763,-536.5 "/>
<polyline fill="none" stroke="#838b83" points="763,-516.5 767,-516.5 767,-512.5 763,-512.5 "/>
<text text-anchor="start" x="771" y="-523.8" font-family="ubuntu" font-weight="bold" font-size="14.00">Comet</text>
</g>
<!-- comet&#45;&gt;bk_decoy -->
<g id="edge43" class="edge">
<title>comet&#45;&gt;bk_decoy</title>
<path fill="none" stroke="lightcoral" d="M823.43,-511.53C826.3,-510.42 829.18,-509.39 832,-508.5 886.82,-491.09 949.14,-477.46 1001.83,-467.64"/>
<polygon fill="lightcoral" stroke="lightcoral" points="1002.7,-471.04 1011.9,-465.79 1001.43,-464.16 1002.7,-471.04"/>
</g>
<!-- comet&#45;&gt;perc -->
<g id="edge40" class="edge">
<title>comet&#45;&gt;perc</title>
<path fill="none" stroke="black" d="M762.94,-510.52C743.7,-500.93 718.13,-488.19 695.22,-476.77"/>
<polygon fill="black" stroke="black" points="696.77,-473.63 686.26,-472.3 693.65,-479.9 696.77,-473.63"/>
</g>
<!-- dlfq -->
<g id="node27" class="node">
<title>dlfq</title>
<polygon fill="#f0fff0" stroke="#838b83" points="1445,-136 1359,-136 1359,-132 1355,-132 1355,-128 1359,-128 1359,-108 1355,-108 1355,-104 1359,-104 1359,-100 1445,-100 1445,-136"/>
<polyline fill="none" stroke="#838b83" points="1359,-132 1363,-132 1363,-128 1359,-128 "/>
<polyline fill="none" stroke="#838b83" points="1359,-108 1363,-108 1363,-104 1359,-104 "/>
<text text-anchor="start" x="1367" y="-115.3" font-family="ubuntu" font-weight="bold" font-size="14.00">DirectLFQ</text>
</g>
<!-- quant -->
<g id="node38" class="node">
<title>quant</title>
<polygon fill="ivory" stroke="indigo" points="1445.42,-38.54 1445.42,-53.46 1349.69,-64 1214.31,-64 1118.58,-53.46 1118.58,-38.54 1214.31,-28 1349.69,-28 1445.42,-38.54"/>
<text text-anchor="start" x="1174" y="-42.3" font-family="ubuntu" font-size="14.00">Estimations of protein abundance</text>
</g>
<!-- dlfq&#45;&gt;quant -->
<g id="edge51" class="edge">
<title>dlfq&#45;&gt;quant</title>
<path fill="none" stroke="black" d="M1372.64,-99.88C1356.95,-90.72 1337.44,-79.34 1320.55,-69.48"/>
<polygon fill="black" stroke="black" points="1321.87,-66.21 1311.47,-64.19 1318.34,-72.25 1321.87,-66.21"/>
</g>
<!-- empai -->
<g id="node28" class="node">
<title>empai</title>
<polygon fill="#f0fff0" stroke="#838b83" points="1243,-136 917,-136 917,-132 913,-132 913,-128 917,-128 917,-108 913,-108 913,-104 917,-104 917,-100 1243,-100 1243,-136"/>
<polyline fill="none" stroke="#838b83" points="917,-132 921,-132 921,-128 917,-128 "/>
<polyline fill="none" stroke="#838b83" points="917,-108 921,-108 921,-104 917,-104 "/>
<text text-anchor="start" x="1058.5" y="-121.8" font-family="ubuntu" font-weight="bold" font-size="14.00">emPAI</text>
<text text-anchor="start" x="925" y="-107.8" font-family="ubuntu" font-size="14.00">Exponentially modified protein abundance index</text>
</g>
<!-- empai&#45;&gt;quant -->
<g id="edge52" class="edge">
<title>empai&#45;&gt;quant</title>
<path fill="none" stroke="black" d="M1129.16,-99.97C1157.5,-90.14 1193.32,-77.73 1223.16,-67.39"/>
<polygon fill="black" stroke="black" points="1224.32,-70.69 1232.62,-64.11 1222.03,-64.08 1224.32,-70.69"/>
</g>
<!-- flfq -->
<g id="node29" class="node">
<title>flfq</title>
<polygon fill="#f0fff0" stroke="#838b83" points="1341,-136 1261,-136 1261,-132 1257,-132 1257,-128 1261,-128 1261,-108 1257,-108 1257,-104 1261,-104 1261,-100 1341,-100 1341,-136"/>
<polyline fill="none" stroke="#838b83" points="1261,-132 1265,-132 1265,-128 1261,-128 "/>
<polyline fill="none" stroke="#838b83" points="1261,-108 1265,-108 1265,-104 1261,-104 "/>
<text text-anchor="start" x="1269" y="-115.3" font-family="ubuntu" font-weight="bold" font-size="14.00">FlashLFQ</text>
</g>
<!-- flfq&#45;&gt;quant -->
<g id="edge53" class="edge">
<title>flfq&#45;&gt;quant</title>
<path fill="none" stroke="black" d="M1296.3,-99.7C1294.19,-91.9 1291.64,-82.51 1289.28,-73.83"/>
<polygon fill="black" stroke="black" points="1292.64,-72.84 1286.64,-64.1 1285.88,-74.67 1292.64,-72.84"/>
</g>
<!-- two -->
<g id="node45" class="node">
<title>two</title>
<polygon fill="transparent" stroke="transparent" points="1161.5,-544.5 1022.5,-544.5 1022.5,-508.5 1161.5,-508.5 1161.5,-544.5"/>
<text text-anchor="start" x="1030.5" y="-522.8" font-family="ubuntu" font-size="14.00">Second&#45;pass search</text>
</g>
<!-- bk_decoy&#45;&gt;two -->
<g id="edge44" class="edge">
<title>bk_decoy&#45;&gt;two</title>
<path fill="none" stroke="lightcoral" d="M1114.48,-466C1110.81,-475.71 1106.15,-488.04 1102.03,-498.96"/>
<polygon fill="lightcoral" stroke="lightcoral" points="1098.7,-497.88 1098.44,-508.47 1105.24,-500.35 1098.7,-497.88"/>
</g>
<!-- cov -->
<g id="node31" class="node">
<title>cov</title>
<polygon fill="#f0fff0" stroke="#838b83" points="1445,-208 1183,-208 1183,-204 1179,-204 1179,-200 1183,-200 1183,-180 1179,-180 1179,-176 1183,-176 1183,-172 1445,-172 1445,-208"/>
<polyline fill="none" stroke="#838b83" points="1183,-204 1187,-204 1187,-200 1183,-200 "/>
<polyline fill="none" stroke="#838b83" points="1183,-180 1187,-180 1187,-176 1183,-176 "/>
<text text-anchor="start" x="1239.5" y="-193.8" font-family="ubuntu" font-weight="bold" font-size="14.00">Global&#45;local alignment</text>
<text text-anchor="start" x="1191" y="-179.8" font-family="ubuntu" font-size="14.00">Calculate protein coverage by peptides</text>
</g>
<!-- denovo&#45;&gt;decoy_db -->
<g id="edge20" class="edge">
<title>denovo&#45;&gt;decoy_db</title>
<path fill="none" stroke="black" d="M927.81,-831.39C898.02,-816.22 852.1,-794.51 810,-781.5 803.59,-779.52 796.96,-777.68 790.24,-775.96"/>
<polygon fill="black" stroke="black" points="790.88,-772.52 780.33,-773.55 789.22,-779.32 790.88,-772.52"/>
</g>
<!-- mgf -->
<g id="node33" class="node">
<title>mgf</title>
<polygon fill="#cae1ff" stroke="#8470ff" points="1111,-1083.5 1069,-1083.5 1069,-1087.5 1057,-1087.5 1057,-1047.5 1111,-1047.5 1111,-1083.5"/>
<polyline fill="none" stroke="#8470ff" points="1057,-1083.5 1069,-1083.5 "/>
<text text-anchor="middle" x="1084" y="-1061.8" font-family="ubuntu" font-size="14.00">mgf</text>
</g>
<!-- d -->
<g id="node42" class="node">
<title>d</title>
<polygon fill="transparent" stroke="transparent" points="1138,-1011.5 944,-1011.5 944,-975.5 1138,-975.5 1138,-1011.5"/>
<text text-anchor="start" x="952" y="-989.8" font-family="ubuntu" font-size="14.00">Denovo peptide sequencing</text>
</g>
<!-- mgf&#45;&gt;d -->
<g id="edge13" class="edge">
<title>mgf&#45;&gt;d</title>
<path fill="none" stroke="black" d="M1073.37,-1047.2C1068.37,-1039.06 1062.31,-1029.19 1056.79,-1020.2"/>
<polygon fill="black" stroke="black" points="1059.72,-1018.29 1051.51,-1011.6 1053.76,-1021.96 1059.72,-1018.29"/>
</g>
<!-- mzML -->
<g id="node34" class="node">
<title>mzML</title>
<polygon fill="#cae1ff" stroke="#8470ff" points="1273.5,-1083.5 1230.5,-1083.5 1230.5,-1087.5 1218.5,-1087.5 1218.5,-1047.5 1273.5,-1047.5 1273.5,-1083.5"/>
<polyline fill="none" stroke="#8470ff" points="1218.5,-1083.5 1230.5,-1083.5 "/>
<text text-anchor="middle" x="1246" y="-1061.8" font-family="ubuntu" font-size="14.00">mzML</text>
</g>
<!-- pre -->
<g id="node40" class="node">
<title>pre</title>
<polygon fill="transparent" stroke="transparent" points="1299,-939.5 1193,-939.5 1193,-903.5 1299,-903.5 1299,-939.5"/>
<text text-anchor="start" x="1201" y="-917.8" font-family="ubuntu" font-size="14.00">Preprocessing</text>
</g>
<!-- mzML&#45;&gt;pre -->
<g id="edge22" class="edge">
<title>mzML&#45;&gt;pre</title>
<path fill="none" stroke="lightcoral" d="M1246,-1047.37C1246,-1023.17 1246,-978.71 1246,-949.89"/>
<polygon fill="lightcoral" stroke="lightcoral" points="1249.5,-949.69 1246,-939.69 1242.5,-949.69 1249.5,-949.69"/>
</g>
<!-- search -->
<g id="node43" class="node">
<title>search</title>
<polygon fill="transparent" stroke="transparent" points="778.5,-616.5 623.5,-616.5 623.5,-580.5 778.5,-580.5 778.5,-616.5"/>
<text text-anchor="middle" x="701" y="-594.8" font-family="ubuntu" font-size="14.00">Search with 6 engines</text>
</g>
<!-- mzML&#45;&gt;search -->
<g id="edge27" class="edge">
<title>mzML&#45;&gt;search</title>
<path fill="none" stroke="black" d="M1273.83,-1060.43C1334.45,-1049.84 1473,-1015.47 1473,-922.5 1473,-922.5 1473,-922.5 1473,-848.5 1473,-817.55 1476.31,-802.95 1454,-781.5 1358.78,-689.94 966.33,-631.73 788.86,-609.6"/>
<polygon fill="black" stroke="black" points="789.12,-606.11 778.77,-608.36 788.26,-613.06 789.12,-606.11"/>
</g>
<!-- rand&#45;&gt;interpro -->
<g id="edge61" class="edge">
<title>rand&#45;&gt;interpro</title>
<path fill="none" stroke="black" d="M456.04,-258.8C458.09,-247.16 460.84,-231.55 463.19,-218.24"/>
<polygon fill="black" stroke="black" points="466.68,-218.63 464.97,-208.18 459.78,-217.41 466.68,-218.63"/>
</g>
<!-- conf&#45;&gt;api -->
<g id="edge60" class="edge">
<title>conf&#45;&gt;api</title>
<path fill="none" stroke="black" d="M753.76,-258.8C751.57,-247.16 748.63,-231.55 746.13,-218.24"/>
<polygon fill="black" stroke="black" points="749.52,-217.36 744.23,-208.18 742.64,-218.65 749.52,-217.36"/>
</g>
<!-- conf&#45;&gt;cov -->
<g id="edge46" class="edge">
<title>conf&#45;&gt;cov</title>
<path fill="none" stroke="black" d="M881.24,-273.25C983.64,-270.12 1120.41,-263.68 1174,-251 1208.99,-242.72 1246.3,-226.31 1273.6,-212.74"/>
<polygon fill="black" stroke="black" points="1275.48,-215.71 1282.82,-208.08 1272.32,-209.47 1275.48,-215.71"/>
</g>
<!-- lfq -->
<g id="node46" class="node">
<title>lfq</title>
<polygon fill="transparent" stroke="transparent" points="1165,-208 989,-208 989,-172 1165,-172 1165,-208"/>
<text text-anchor="start" x="997" y="-186.3" font-family="ubuntu" font-size="14.00">Label&#45;free quantification</text>
</g>
<!-- conf&#45;&gt;lfq -->
<g id="edge47" class="edge">
<title>conf&#45;&gt;lfq</title>
<path fill="none" stroke="black" d="M857.96,-259C869.82,-256.54 881.71,-253.86 893,-251 936.46,-239.97 984.61,-224.14 1020.75,-211.5"/>
<polygon fill="black" stroke="black" points="1022.35,-214.65 1030.62,-208.03 1020.02,-208.05 1022.35,-214.65"/>
</g>
<!-- decoy_db&#45;&gt;search -->
<g id="edge28" class="edge">
<title>decoy_db&#45;&gt;search</title>
<path fill="none" stroke="black" d="M675.21,-737.32C680.22,-710.55 689.93,-658.66 695.9,-626.75"/>
<polygon fill="black" stroke="black" points="699.37,-627.23 697.77,-616.76 692.49,-625.94 699.37,-627.23"/>
</g>
<!-- pre&#45;&gt;flcn -->
<g id="edge23" class="edge">
<title>pre&#45;&gt;flcn</title>
<path fill="none" stroke="lightcoral" d="M1212.24,-903.38C1193.78,-894.01 1170.72,-882.31 1150.98,-872.3"/>
<polygon fill="lightcoral" stroke="lightcoral" points="1152.39,-869.09 1141.89,-867.69 1149.22,-875.33 1152.39,-869.09"/>
</g>
<!-- pre&#45;&gt;wiz -->
<g id="edge24" class="edge">
<title>pre&#45;&gt;wiz</title>
<path fill="none" stroke="lightcoral" d="M1264.04,-903.2C1273.06,-894.55 1284.12,-883.95 1293.94,-874.53"/>
<polygon fill="lightcoral" stroke="lightcoral" points="1296.37,-877.05 1301.16,-867.6 1291.52,-872 1296.37,-877.05"/>
</g>
<!-- thermoparse&#45;&gt;mgf -->
<g id="edge12" class="edge">
<title>thermoparse&#45;&gt;mgf</title>
<path fill="none" stroke="black" d="M1179.18,-1119.38C1161.27,-1109.43 1138.62,-1096.85 1119.91,-1086.45"/>
<polygon fill="black" stroke="black" points="1121.52,-1083.34 1111.08,-1081.55 1118.12,-1089.46 1121.52,-1083.34"/>
</g>
<!-- thermoparse&#45;&gt;mzML -->
<g id="edge21" class="edge">
<title>thermoparse&#45;&gt;mzML</title>
<path fill="none" stroke="black" d="M1218.9,-1119.2C1223,-1111.23 1227.95,-1101.6 1232.49,-1092.76"/>
<polygon fill="black" stroke="black" points="1235.74,-1094.1 1237.2,-1083.6 1229.52,-1090.9 1235.74,-1094.1"/>
</g>
<!-- d&#45;&gt;sms -->
<g id="edge14" class="edge">
<title>d&#45;&gt;sms</title>
<path fill="none" stroke="black" d="M1015.07,-975.38C1001.34,-966.31 984.29,-955.05 969.46,-945.26"/>
<polygon fill="black" stroke="black" points="971.3,-942.28 961.03,-939.69 967.45,-948.12 971.3,-942.28"/>
</g>
<!-- d&#45;&gt;pepnet -->
<g id="edge15" class="edge">
<title>d&#45;&gt;pepnet</title>
<path fill="none" stroke="black" d="M1036.3,-975.2C1034.19,-967.4 1031.64,-958.01 1029.28,-949.33"/>
<polygon fill="black" stroke="black" points="1032.64,-948.34 1026.64,-939.6 1025.88,-950.17 1032.64,-948.34"/>
</g>
<!-- d&#45;&gt;csnv -->
<g id="edge16" class="edge">
<title>d&#45;&gt;csnv</title>
<path fill="none" stroke="black" d="M1059.04,-975.2C1068.06,-966.55 1079.12,-955.95 1088.94,-946.53"/>
<polygon fill="black" stroke="black" points="1091.37,-949.05 1096.16,-939.6 1086.52,-944 1091.37,-949.05"/>
</g>
<!-- search&#45;&gt;meta -->
<g id="edge29" class="edge">
<title>search&#45;&gt;meta</title>
<path fill="none" stroke="black" d="M671.4,-580.38C655.43,-571.14 635.54,-559.63 618.39,-549.71"/>
<polygon fill="black" stroke="black" points="620.12,-546.67 609.71,-544.69 616.62,-552.73 620.12,-546.67"/>
</g>
<!-- search&#45;&gt;tide -->
<g id="edge30" class="edge">
<title>search&#45;&gt;tide</title>
<path fill="none" stroke="black" d="M623.4,-594.93C563.52,-590.73 479.59,-579.93 411,-552.5 408.93,-551.67 406.87,-550.71 404.83,-549.65"/>
<polygon fill="black" stroke="black" points="406.56,-546.61 396.18,-544.53 403,-552.63 406.56,-546.61"/>
</g>
<!-- search&#45;&gt;mq -->
<g id="edge31" class="edge">
<title>search&#45;&gt;mq</title>
<path fill="none" stroke="black" d="M623.5,-583.25C588.84,-575.82 547.82,-565.52 512,-552.5 508.94,-551.39 505.83,-550.14 502.73,-548.81"/>
<polygon fill="black" stroke="black" points="504.08,-545.58 493.53,-544.63 501.18,-551.95 504.08,-545.58"/>
</g>
<!-- search&#45;&gt;idpy -->
<g id="edge32" class="edge">
<title>search&#45;&gt;idpy</title>
<path fill="none" stroke="black" d="M757.61,-580.47C781,-572.82 808.17,-563.12 832,-552.5 834.29,-551.48 836.61,-550.39 838.94,-549.25"/>
<polygon fill="black" stroke="black" points="840.55,-552.35 847.85,-544.67 837.35,-546.12 840.55,-552.35"/>
</g>
<!-- search&#45;&gt;msfrag -->
<g id="edge33" class="edge">
<title>search&#45;&gt;msfrag</title>
<path fill="none" stroke="black" d="M701,-580.2C701,-572.48 701,-563.21 701,-554.61"/>
<polygon fill="black" stroke="black" points="704.5,-554.6 701,-544.6 697.5,-554.6 704.5,-554.6"/>
</g>
<!-- search&#45;&gt;comet -->
<g id="edge34" class="edge">
<title>search&#45;&gt;comet</title>
<path fill="none" stroke="black" d="M723.74,-580.2C735.44,-571.3 749.86,-560.32 762.51,-550.7"/>
<polygon fill="black" stroke="black" points="764.68,-553.44 770.52,-544.6 760.44,-547.87 764.68,-553.44"/>
</g>
<!-- perc&#45;&gt;ursgal -->
<g id="edge54" class="edge">
<title>perc&#45;&gt;ursgal</title>
<path fill="none" stroke="black" d="M658.03,-422.83C669.5,-408.43 684.09,-390.09 695.77,-375.42"/>
<polygon fill="black" stroke="black" points="698.77,-377.27 702.26,-367.27 693.29,-372.91 698.77,-377.27"/>
</g>
<!-- perc&#45;&gt;intersect -->
<g id="edge55" class="edge">
<title>perc&#45;&gt;intersect</title>
<path fill="none" stroke="black" d="M603.28,-423.08C580.08,-407.7 550,-387.77 527.12,-372.61"/>
<polygon fill="black" stroke="black" points="529,-369.66 518.73,-367.05 525.14,-375.49 529,-369.66"/>
</g>
<!-- two&#45;&gt;search -->
<g id="edge45" class="edge">
<title>two&#45;&gt;search</title>
<path fill="none" stroke="lightcoral" d="M1022.3,-540.53C1001.32,-544.42 978.23,-548.67 957,-552.5 901.02,-562.6 838.09,-573.67 788.64,-582.3"/>
<polygon fill="lightcoral" stroke="lightcoral" points="787.86,-578.88 778.61,-584.05 789.07,-585.78 787.86,-578.88"/>
</g>
<!-- lfq&#45;&gt;dlfq -->
<g id="edge48" class="edge">
<title>lfq&#45;&gt;dlfq</title>
<path fill="none" stroke="black" d="M1165.32,-173.08C1226.67,-161.81 1303.98,-147.12 1349.28,-135.98"/>
<polygon fill="black" stroke="black" points="1350.16,-139.37 1358.99,-133.52 1348.44,-132.58 1350.16,-139.37"/>
</g>
<!-- lfq&#45;&gt;empai -->
<g id="edge49" class="edge">
<title>lfq&#45;&gt;empai</title>
<path fill="none" stroke="black" d="M1077.74,-171.7C1078.07,-163.98 1078.47,-154.71 1078.84,-146.11"/>
<polygon fill="black" stroke="black" points="1082.34,-146.25 1079.27,-136.1 1075.34,-145.95 1082.34,-146.25"/>
</g>
<!-- lfq&#45;&gt;flfq -->
<g id="edge50" class="edge">
<title>lfq&#45;&gt;flfq</title>
<path fill="none" stroke="black" d="M1135.52,-171.91C1167.27,-162.49 1207.42,-150.35 1251.23,-136.19"/>
<polygon fill="black" stroke="black" points="1252.5,-139.46 1260.93,-133.05 1250.34,-132.8 1252.5,-139.46"/>
</g>
</g>
</svg>
